<svg width="16" height="17" viewBox="0 0 16 17" fill="none" xmlns="http://www.w3.org/2000/svg">
<path d="M9.38813 7.76533V6.5M9.38813 7.76533V8.48707M9.38813 7.76533C9.38813 8.07027 9.38813 8.30733 9.39747 8.5M9.38813 8.48707V8.5C9.38813 8.78207 9.38813 9.00007 9.37993 9.177M9.38813 8.48707L9.39747 8.5M9.39747 8.5C9.40907 8.74027 9.4352 8.91147 9.49393 9.05913C9.60827 9.34673 9.80693 9.5776 10.0545 9.7104C10.2835 9.83333 10.5783 9.83333 11.1681 9.83333H11.6927C11.7495 9.83333 11.7779 9.83333 11.797 9.83187C12.2204 9.79907 12.4678 9.26207 12.2564 8.8346C12.2469 8.81533 12.2311 8.78787 12.1996 8.73293L12.1867 8.7104C12.1705 8.68213 12.1623 8.668 12.1548 8.65553C11.8691 8.18147 11.3528 7.97567 10.8768 8.14607C10.8643 8.15053 10.8503 8.156 10.8227 8.16667M9.37993 9.177C9.37013 9.3898 9.34847 9.54313 9.30073 9.67693C9.18427 10.0036 8.96087 10.2632 8.67967 10.3985C8.46873 10.5 8.2014 10.5 7.66667 10.5M9.37993 9.177L7.9536 7.5M6.33333 6.5V9.16667C6.33333 9.90307 5.73638 10.5 5 10.5" stroke="currentColor" stroke-linecap="round" stroke-linejoin="round"/>
<path d="M6.85306 2.7354C7.22886 2.33331 7.41673 2.13226 7.61746 2.02026C8.06266 1.77189 8.60466 1.77189 9.04986 2.02026C9.25059 2.13226 9.43846 2.33331 9.81426 2.7354C9.98359 2.91655 10.0683 3.00713 10.1624 3.07985C10.3691 3.23949 10.6146 3.34118 10.8736 3.37445C10.9917 3.38961 11.1155 3.38542 11.3633 3.37705C11.9134 3.35845 12.1885 3.34916 12.4096 3.41191C12.9 3.55106 13.2833 3.93435 13.4224 4.42473C13.4851 4.64588 13.4759 4.92091 13.4573 5.47096C13.4489 5.71877 13.4447 5.84269 13.4599 5.96069C13.4931 6.21973 13.5948 6.46521 13.7545 6.67191C13.8272 6.76607 13.9177 6.85072 14.0989 7.02003C14.501 7.39585 14.7021 7.58372 14.8141 7.78445C15.0624 8.22965 15.0624 8.77165 14.8141 9.21685C14.7021 9.41759 14.501 9.60545 14.0989 9.98125C13.9177 10.1506 13.8272 10.2353 13.7545 10.3294C13.5948 10.5361 13.4931 10.7816 13.4599 11.0406C13.4447 11.1587 13.4489 11.2825 13.4573 11.5303C13.4759 12.0804 13.4851 12.3555 13.4224 12.5766C13.2833 13.067 12.9 13.4503 12.4096 13.5894C12.1885 13.6521 11.9134 13.6429 11.3633 13.6243C11.1155 13.6159 10.9917 13.6117 10.8736 13.6269C10.6146 13.6601 10.3691 13.7618 10.1624 13.9215C10.0683 13.9942 9.98359 14.0847 9.81426 14.2659C9.43846 14.668 9.25059 14.8691 9.04986 14.9811C8.60466 15.2294 8.06266 15.2294 7.61746 14.9811C7.41673 14.8691 7.22886 14.668 6.85306 14.2659C6.68373 14.0847 6.59907 13.9942 6.50491 13.9215C6.29822 13.7618 6.05273 13.6601 5.7937 13.6269C5.67569 13.6117 5.55178 13.6159 5.30397 13.6243C4.75391 13.6429 4.47889 13.6521 4.25774 13.5894C3.76735 13.4503 3.38407 13.067 3.24492 12.5766C3.18217 12.3555 3.19146 12.0804 3.21005 11.5303C3.21843 11.2825 3.22261 11.1587 3.20745 11.0406C3.17419 10.7816 3.0725 10.5361 2.91286 10.3294C2.84014 10.2353 2.74956 10.1506 2.56841 9.98125C2.16631 9.60545 1.96527 9.41759 1.85327 9.21685C1.6049 8.77165 1.6049 8.22965 1.85327 7.78445C1.96527 7.58372 2.16631 7.39585 2.56841 7.02003C2.74956 6.85072 2.84014 6.76607 2.91286 6.67191C3.0725 6.46521 3.17419 6.21972 3.20745 5.96069C3.22261 5.84269 3.21843 5.71877 3.21005 5.47096C3.19146 4.92091 3.18217 4.64588 3.24492 4.42473C3.38407 3.93435 3.76735 3.55106 4.25774 3.41191C4.47889 3.34916 4.75391 3.35845 5.30397 3.37705C5.55178 3.38542 5.67569 3.38961 5.7937 3.37445C6.05273 3.34118 6.29822 3.23949 6.50491 3.07985C6.59907 3.00713 6.68373 2.91655 6.85306 2.7354Z" stroke="currentColor"/>
</svg>
