<svg width="16" height="17" viewBox="0 0 16 17" fill="none" xmlns="http://www.w3.org/2000/svg">
<path d="M4.85595 6.97386L4.57365 6.42542C4.46114 6.20684 4.40488 6.09754 4.32061 6.01846C4.25133 5.95346 4.16883 5.9036 4.07853 5.87219C3.96871 5.83398 3.84407 5.83398 3.59482 5.83398C3.22842 5.83398 3.04522 5.83398 2.90223 5.90409C2.78527 5.96142 2.68767 6.05075 2.62114 6.16132C2.5398 6.2965 2.52675 6.4761 2.50065 6.83528L2.05081 13.0249C1.97787 14.0285 1.9414 14.5303 2.24319 14.8488C2.54498 15.1673 3.05685 15.1673 4.0806 15.1673H11.9194C12.9431 15.1673 13.455 15.1673 13.7568 14.8488C14.0586 14.5303 14.0221 14.0285 13.9492 13.0249L13.4993 6.83528C13.4733 6.4761 13.4602 6.2965 13.3789 6.16132C13.3123 6.05075 13.2147 5.96142 13.0978 5.90409C12.9548 5.83398 12.7716 5.83398 12.4052 5.83398C12.1559 5.83398 12.0313 5.83398 11.9215 5.87219C11.8312 5.9036 11.7487 5.95346 11.6794 6.01846C11.5951 6.09754 11.5389 6.20683 11.4263 6.42543L11.1441 6.97386C11.0639 7.12961 11.0238 7.20745 10.9698 7.26912C10.878 7.37378 10.7554 7.44792 10.6189 7.48112C10.5386 7.50065 10.4498 7.50065 10.2722 7.50065C10.0737 7.50065 9.97453 7.50065 9.8868 7.47712C9.73753 7.43705 9.60673 7.34805 9.51607 7.22492C9.46273 7.15253 9.42773 7.06126 9.3578 6.87872L9.27687 6.66732C9.1282 6.27934 9.05393 6.08534 8.89747 5.96902C8.8822 5.95766 8.86647 5.94693 8.85027 5.93688C8.68433 5.83398 8.47347 5.83398 8.0516 5.83398H7.9484C7.52653 5.83398 7.31567 5.83398 7.1498 5.93688C7.13353 5.94693 7.1178 5.95766 7.10253 5.96902C6.94607 6.08534 6.8718 6.27934 6.72313 6.66732L6.64218 6.87872C6.57225 7.06126 6.53729 7.15253 6.48395 7.22492C6.39324 7.34805 6.26243 7.43705 6.11322 7.47712C6.02547 7.50065 5.92625 7.50065 5.72779 7.50065C5.55019 7.50065 5.46139 7.50065 5.38108 7.48112C5.24459 7.44792 5.12197 7.37378 5.0302 7.26912C4.9762 7.20745 4.93612 7.12961 4.85595 6.97386Z" stroke="currentColor" stroke-linecap="round" stroke-linejoin="round"/>
<path d="M8 3.83398C8.994 4.28968 10.6667 3.50065 10.6667 1.83398C9.57187 2.24924 9.007 2.24348 8 1.83398V3.83398ZM8 3.83398V5.83398" stroke="currentColor" stroke-linecap="round" stroke-linejoin="round"/>
<path d="M6 15.1676L6.40518 13.1417C6.50088 12.6632 6.54873 12.424 6.677 12.2471C6.99567 11.8078 7.50747 11.8343 8 11.8343C8.49253 11.8343 9.00433 11.8078 9.323 12.2471C9.45127 12.424 9.49913 12.6632 9.5948 13.1417L10 15.1676" stroke="currentColor" stroke-linecap="round" stroke-linejoin="round"/>
<path d="M7.33301 9.83398H8.66634" stroke="currentColor" stroke-linecap="round" stroke-linejoin="round"/>
</svg>
