<svg width="16" height="17" viewBox="0 0 16 17" fill="none" xmlns="http://www.w3.org/2000/svg">
<path fill-rule="evenodd" clip-rule="evenodd" d="M4.46128 6.39048C4.03344 6.44426 3.79306 6.54311 3.60977 6.69852C3.42582 6.8545 3.28628 7.0786 3.15806 7.49814C3.02592 7.93044 2.92339 8.50688 2.77731 9.3354L2.53381 10.7163C2.33207 11.8605 2.19114 12.6665 2.16974 13.2805C2.1488 13.8813 2.24751 14.2045 2.44257 14.4404C2.63658 14.6751 2.93022 14.8288 3.51457 14.9131C4.11351 14.9994 4.92016 15.0007 6.06838 15.0007H9.93225C11.0805 15.0007 11.8871 14.9994 12.4861 14.9131C13.0704 14.8288 13.3641 14.6751 13.5581 14.4404C13.7531 14.2045 13.8518 13.8813 13.8309 13.2805C13.8095 12.6665 13.6686 11.8605 13.4668 10.7164C13.4668 10.7163 13.4668 10.7164 13.4668 10.7164L13.2233 9.33542C13.0772 8.5069 12.9747 7.93044 12.8426 7.49813C12.7143 7.0786 12.5748 6.85451 12.3909 6.69853C12.2076 6.54311 11.9672 6.44425 11.5394 6.39048C11.0972 6.33491 10.5202 6.33399 9.68878 6.33399H6.31188C5.48043 6.33399 4.9034 6.33491 4.46128 6.39048ZM6.2787 5.33398H9.72196C10.5123 5.33397 11.1523 5.33396 11.6641 5.39829C12.1972 5.4653 12.651 5.60803 13.0376 5.93579C13.4235 6.26298 13.6408 6.68851 13.7989 7.20585C13.951 7.70363 14.0634 8.34073 14.2024 9.12949L14.2081 9.16175L14.4517 10.5427L14.4586 10.5822C14.6518 11.678 14.8062 12.5532 14.8303 13.2457C14.8552 13.9596 14.7469 14.5718 14.3288 15.0776C13.9097 15.5846 13.3304 15.8017 12.6288 15.9028C11.9501 16.0007 11.071 16.0007 9.97291 16.0007H6.02773C4.92957 16.0007 4.05052 16.0007 3.37186 15.9028C2.67024 15.8017 2.09097 15.5846 1.67184 15.0776C1.25376 14.5719 1.14546 13.9596 1.17035 13.2457C1.19449 12.5532 1.34883 11.6779 1.54209 10.5819L1.54901 10.5427L1.7925 9.16176L1.79814 9.12976C1.93723 8.34087 2.04956 7.70368 2.20173 7.20584C2.35985 6.6885 2.57718 6.26299 2.96304 5.9358C3.34959 5.60804 3.8034 5.4653 4.33657 5.39829C4.84831 5.33396 5.48835 5.33397 6.2787 5.33398Z" fill="currentColor"/>
<path fill-rule="evenodd" clip-rule="evenodd" d="M7.99925 2.33398C6.75201 2.33398 5.71298 3.29003 5.6094 4.53296L5.49752 5.87551L4.50098 5.79246L4.61286 4.44991C4.75963 2.68869 6.23192 1.33398 7.99925 1.33398C9.76656 1.33398 11.2389 2.68869 11.3857 4.44991L11.3857 4.44992L11.4975 5.79247L10.501 5.8755L10.3891 4.53297C10.3891 4.53296 10.3891 4.53296 10.3891 4.53296C10.2855 3.29002 9.24647 2.33398 7.99925 2.33398Z" fill="currentColor"/>
<path fill-rule="evenodd" clip-rule="evenodd" d="M5.95422 7.33612C6.2292 7.31082 6.47263 7.51322 6.49793 7.78821C6.55732 8.43373 7.17323 9.00068 8.00003 9.00068C8.82684 9.00068 9.44275 8.43372 9.50214 7.78821C9.52743 7.51323 9.77086 7.31082 10.0458 7.33612C10.3208 7.36142 10.5232 7.60484 10.4979 7.87982C10.384 9.11845 9.26083 10.0007 8.00003 10.0007C6.73923 10.0007 5.6161 9.11844 5.50214 7.87983C5.47683 7.60485 5.67924 7.36142 5.95422 7.33612Z" fill="currentColor"/>
</svg>
