<svg width="24" height="24" viewBox="0 0 24 24" fill="none" xmlns="http://www.w3.org/2000/svg">
<mask id="mask0_9021_1282" style="mask-type:alpha" maskUnits="userSpaceOnUse" x="0" y="0" width="24" height="24">
<rect width="24" height="24" fill="#D9D9D9"/>
</mask>
<g mask="url(#mask0_9021_1282)">
<path d="M10.5808 14.1462L8.25765 11.8231C8.1192 11.6846 7.94517 11.6138 7.73555 11.6106C7.52593 11.6074 7.34869 11.6782 7.20382 11.8231C7.05896 11.968 6.98653 12.1436 6.98653 12.35C6.98653 12.5564 7.05896 12.732 7.20382 12.8769L9.94805 15.6211C10.1288 15.8019 10.3397 15.8923 10.5808 15.8923C10.8218 15.8923 11.0327 15.8019 11.2134 15.6211L16.7769 10.0577C16.9153 9.91923 16.9862 9.7452 16.9894 9.53558C16.9926 9.32596 16.9218 9.14872 16.7769 9.00386C16.632 8.85899 16.4564 8.78656 16.25 8.78656C16.0436 8.78656 15.8679 8.85899 15.7231 9.00386L10.5808 14.1462ZM12.0016 21.5C10.6877 21.5 9.45268 21.2506 8.29655 20.752C7.1404 20.2533 6.13472 19.5766 5.2795 18.7217C4.42427 17.8669 3.74721 16.8616 3.24833 15.706C2.74944 14.5504 2.5 13.3156 2.5 12.0017C2.5 10.6877 2.74933 9.45271 3.248 8.29658C3.74667 7.14043 4.42342 6.13475 5.27825 5.27953C6.1331 4.4243 7.13834 3.74724 8.29398 3.24836C9.44959 2.74947 10.6844 2.50003 11.9983 2.50003C13.3122 2.50003 14.5473 2.74936 15.7034 3.24803C16.8596 3.7467 17.8652 4.42345 18.7205 5.27828C19.5757 6.13313 20.2527 7.13837 20.7516 8.29401C21.2505 9.44962 21.5 10.6844 21.5 11.9983C21.5 13.3123 21.2506 14.5473 20.752 15.7034C20.2533 16.8596 19.5765 17.8653 18.7217 18.7205C17.8669 19.5757 16.8616 20.2528 15.706 20.7517C14.5504 21.2505 13.3156 21.5 12.0016 21.5Z" fill="#0B0C0F"/>
</g>
</svg>
