<svg width="24" height="24" viewBox="0 0 24 24" fill="none" xmlns="http://www.w3.org/2000/svg">
<path d="M1.20001 3.89995C1.20001 3.18387 1.48448 2.49711 1.99082 1.99076C2.49717 1.48441 3.18393 1.19995 3.90001 1.19995L14.7 1.19995C15.4161 1.19995 16.1029 1.48441 16.6092 1.99076C17.1155 2.49711 17.4 3.18387 17.4 3.89995V6.59995H20.1C20.8161 6.59995 21.5029 6.88441 22.0092 7.39076C22.5155 7.89711 22.8 8.58387 22.8 9.29995V20.1C22.8 20.816 22.5155 21.5028 22.0092 22.0091C21.5029 22.5155 20.8161 22.8 20.1 22.8H9.30001C8.58393 22.8 7.89717 22.5155 7.39082 22.0091C6.88448 21.5028 6.60001 20.816 6.60001 20.1V17.4H3.90001C3.18393 17.4 2.49717 17.1155 1.99082 16.6091C1.48448 16.1028 1.20001 15.416 1.20001 14.7V3.89995ZM3.90001 2.54995C3.54197 2.54995 3.19859 2.69218 2.94542 2.94536C2.69224 3.19853 2.55001 3.54191 2.55001 3.89995V14.7C2.55001 15.058 2.69224 15.4014 2.94542 15.6545C3.19859 15.9077 3.54197 16.05 3.90001 16.05H14.7C15.0581 16.05 15.4014 15.9077 15.6546 15.6545C15.9078 15.4014 16.05 15.058 16.05 14.7V3.89995C16.05 3.54191 15.9078 3.19853 15.6546 2.94536C15.4014 2.69218 15.0581 2.54995 14.7 2.54995H3.90001Z" fill="#CC0000"/>
</svg>
