<svg width="24" height="24" viewBox="0 0 24 24" fill="none" xmlns="http://www.w3.org/2000/svg">
<path d="M11.6923 3.33333C9.92421 3.33333 8.22852 4.03571 6.97828 5.28595C5.72803 6.5362 5.02566 8.23189 5.02566 10V11.3333H6.35899C6.71261 11.3333 7.05175 11.4738 7.3018 11.7239C7.55185 11.9739 7.69232 12.313 7.69232 12.6667V16.6667C7.69232 17.0203 7.55185 17.3594 7.3018 17.6095C7.05175 17.8595 6.71261 18 6.35899 18H5.02566C4.67203 18 4.33289 17.8595 4.08285 17.6095C3.8328 17.3594 3.69232 17.0203 3.69232 16.6667V10C3.69232 8.94942 3.89925 7.90914 4.30129 6.93853C4.70332 5.96793 5.2926 5.08601 6.03547 4.34315C6.77834 3.60028 7.66025 3.011 8.63085 2.60896C9.60146 2.20693 10.6417 2 11.6923 2C12.7429 2 13.7832 2.20693 14.7538 2.60896C15.7244 3.011 16.6063 3.60028 17.3492 4.34315C18.092 5.08601 18.6813 5.96793 19.0834 6.93853C19.4854 7.90914 19.6923 8.94942 19.6923 10V18C19.6923 18.8841 19.3411 19.7319 18.716 20.357C18.0909 20.9821 17.243 21.3333 16.359 21.3333H13.5137C13.3966 21.536 13.2283 21.7043 13.0256 21.8214C12.823 21.9384 12.593 22 12.359 22H11.0257C10.672 22 10.3329 21.8595 10.0828 21.6095C9.8328 21.3594 9.69232 21.0203 9.69232 20.6667C9.69232 20.313 9.8328 19.9739 10.0828 19.7239C10.3329 19.4738 10.672 19.3333 11.0257 19.3333H12.359C12.593 19.3333 12.823 19.395 13.0256 19.512C13.2283 19.629 13.3966 19.7973 13.5137 20H16.359C16.8894 20 17.3981 19.7893 17.7732 19.4142C18.1483 19.0391 18.359 18.5304 18.359 18H17.0257C16.672 18 16.3329 17.8595 16.0828 17.6095C15.8328 17.3594 15.6923 17.0203 15.6923 16.6667V12.6667C15.6923 12.313 15.8328 11.9739 16.0828 11.7239C16.3329 11.4738 16.672 11.3333 17.0257 11.3333H18.359V10C18.359 9.12452 18.1866 8.25761 17.8515 7.44878C17.5165 6.63994 17.0254 5.90501 16.4064 5.28595C15.7873 4.6669 15.0524 4.17583 14.2435 3.8408C13.4347 3.50577 12.5678 3.33333 11.6923 3.33333Z" fill="#CC0000"/>
</svg>
