<svg width="24" height="24" viewBox="0 0 24 24" fill="none" xmlns="http://www.w3.org/2000/svg">
<g clip-path="url(#clip0_9008_43023)">
<path d="M12.0029 4.50354C12.1687 4.50354 12.3277 4.56939 12.4449 4.6866C12.5621 4.80381 12.6279 4.96278 12.6279 5.12854V7.00354C12.6279 7.1693 12.5621 7.32827 12.4449 7.44548C12.3277 7.56269 12.1687 7.62854 12.0029 7.62854C11.8372 7.62854 11.6782 7.56269 11.561 7.44548C11.4438 7.32827 11.3779 7.1693 11.3779 7.00354V5.12854C11.3779 4.96278 11.4438 4.80381 11.561 4.6866C11.6782 4.56939 11.8372 4.50354 12.0029 4.50354ZM6.66793 6.66854C6.78513 6.55137 6.94408 6.48555 7.1098 6.48555C7.27553 6.48555 7.43447 6.55137 7.55168 6.66854L8.69543 7.81104C8.81279 7.9284 8.87872 8.08757 8.87872 8.25354C8.87872 8.41951 8.81279 8.57868 8.69543 8.69604C8.57807 8.8134 8.4189 8.87933 8.25293 8.87933C8.08696 8.87933 7.92779 8.8134 7.81043 8.69604L6.66793 7.55229C6.55076 7.43509 6.48494 7.27614 6.48494 7.11041C6.48494 6.94469 6.55076 6.78575 6.66793 6.66854ZM4.50293 12.0035C4.50293 11.8378 4.56878 11.6788 4.68599 11.5616C4.8032 11.4444 4.96217 11.3785 5.12793 11.3785H7.11043C7.27619 11.3785 7.43516 11.4444 7.55237 11.5616C7.66958 11.6788 7.73543 11.8378 7.73543 12.0035C7.73543 12.1693 7.66958 12.3283 7.55237 12.4455C7.43516 12.5627 7.27619 12.6285 7.11043 12.6285H5.12793C4.96217 12.6285 4.8032 12.5627 4.68599 12.4455C4.56878 12.3283 4.50293 12.1693 4.50293 12.0035ZM16.3779 12.0035C16.3779 11.8378 16.4438 11.6788 16.561 11.5616C16.6782 11.4444 16.8372 11.3785 17.0029 11.3785H18.8779C19.0437 11.3785 19.2027 11.4444 19.3199 11.5616C19.4371 11.6788 19.5029 11.8378 19.5029 12.0035C19.5029 12.1693 19.4371 12.3283 19.3199 12.4455C19.2027 12.5627 19.0437 12.6285 18.8779 12.6285H17.0029C16.8372 12.6285 16.6782 12.5627 16.561 12.4455C16.4438 12.3283 16.3779 12.1693 16.3779 12.0035ZM17.3204 6.69604C17.2338 6.6099 17.118 6.5595 16.9959 6.55487C16.8739 6.55024 16.7546 6.59171 16.6617 6.67104L11.4367 11.141C11.3163 11.2441 11.2188 11.3711 11.1504 11.514C11.082 11.6569 11.0442 11.8125 11.0395 11.9709C11.0347 12.1293 11.0631 12.2869 11.1227 12.4336C11.1824 12.5804 11.2721 12.7131 11.386 12.8232C11.5 12.9332 11.6357 13.0183 11.7844 13.0729C11.9331 13.1275 12.0916 13.1505 12.2497 13.1403C12.4078 13.1301 12.562 13.0869 12.7025 13.0137C12.843 12.9404 12.9666 12.8386 13.0654 12.7148L17.3579 7.34354C17.4326 7.25006 17.4702 7.13233 17.4635 7.01286C17.4568 6.8934 17.4063 6.7806 17.3217 6.69604H17.3204Z" fill="#CC0000"/>
<path fill-rule="evenodd" clip-rule="evenodd" d="M10.3323 21.8642C9.03724 21.6449 7.79803 21.1726 6.68546 20.4744C5.57289 19.7762 4.60874 18.8657 3.84805 17.7948C2.31177 15.6322 1.69753 12.9478 2.14044 10.3323C2.58335 7.71678 4.04714 5.38432 6.20979 3.84805C8.37243 2.31177 11.0568 1.69753 13.6723 2.14044C16.288 2.58335 18.6206 4.0472 20.157 6.20997C21.6934 8.37273 22.3077 11.0572 21.8648 13.6729C21.4219 16.2886 19.9581 18.6213 17.7953 20.1576C15.6325 21.694 12.948 22.3083 10.3323 21.8654V21.8642ZM4.50107 16.5104C6.78067 15.1914 9.36861 14.4988 12.0023 14.5029C14.7348 14.5029 17.2973 15.2342 19.5036 16.5104C20.3009 15.1827 20.7316 13.6672 20.7516 12.1186C20.7716 10.57 20.3802 9.04385 19.6174 7.696C18.8547 6.34815 17.7478 5.2269 16.4099 4.44677C15.072 3.66664 13.551 3.25558 12.0023 3.25558C10.4536 3.25558 8.93262 3.66664 7.59473 4.44677C6.25684 5.2269 5.14998 6.34815 4.3872 7.696C3.62442 9.04385 3.23304 10.57 3.25305 12.1186C3.27305 13.6672 3.70372 15.1827 4.50107 16.5104Z" fill="#CC0000"/>
</g>
<defs>
<clipPath id="clip0_9008_43023">
<rect width="24" height="24" fill="white"/>
</clipPath>
</defs>
</svg>
