<svg width="24" height="24" viewBox="0 0 24 24" fill="none" xmlns="http://www.w3.org/2000/svg">
<path d="M20.75 20C20.75 20 22 20 22 18.75C22 17.5 20.75 13.75 15.75 13.75C10.75 13.75 9.5 17.5 9.5 18.75C9.5 20 10.75 20 10.75 20H20.75ZM10.7775 18.75C10.7683 18.7487 10.7591 18.7471 10.75 18.745C10.7513 18.415 10.9588 17.4575 11.7 16.595C12.39 15.7863 13.6025 15 15.75 15C17.8962 15 19.1087 15.7875 19.8 16.595C20.5413 17.4575 20.7475 18.4163 20.75 18.745L20.74 18.7475C20.7342 18.7485 20.7284 18.7493 20.7225 18.75H10.7775ZM15.75 11.25C16.413 11.25 17.0489 10.9866 17.5178 10.5178C17.9866 10.0489 18.25 9.41304 18.25 8.75C18.25 8.08696 17.9866 7.45107 17.5178 6.98223C17.0489 6.51339 16.413 6.25 15.75 6.25C15.087 6.25 14.4511 6.51339 13.9822 6.98223C13.5134 7.45107 13.25 8.08696 13.25 8.75C13.25 9.41304 13.5134 10.0489 13.9822 10.5178C14.4511 10.9866 15.087 11.25 15.75 11.25ZM19.5 8.75C19.5 9.24246 19.403 9.73009 19.2145 10.1851C19.0261 10.64 18.7499 11.0534 18.4017 11.4017C18.0534 11.7499 17.64 12.0261 17.1851 12.2145C16.7301 12.403 16.2425 12.5 15.75 12.5C15.2575 12.5 14.7699 12.403 14.3149 12.2145C13.86 12.0261 13.4466 11.7499 13.0983 11.4017C12.7501 11.0534 12.4739 10.64 12.2855 10.1851C12.097 9.73009 12 9.24246 12 8.75C12 7.75544 12.3951 6.80161 13.0983 6.09835C13.8016 5.39509 14.7554 5 15.75 5C16.7446 5 17.6984 5.39509 18.4017 6.09835C19.1049 6.80161 19.5 7.75544 19.5 8.75ZM10.67 14.1C10.17 13.9425 9.65454 13.839 9.1325 13.7913C8.83916 13.7634 8.54466 13.7496 8.25 13.75C3.25 13.75 2 17.5 2 18.75C2 19.5837 2.41625 20 3.25 20H8.52C8.33469 19.6098 8.24228 19.1819 8.25 18.75C8.25 17.4875 8.72125 16.1975 9.6125 15.12C9.91625 14.7525 10.27 14.4087 10.67 14.1ZM8.15 15C7.41019 16.1116 7.01055 17.4148 7 18.75H3.25C3.25 18.425 3.455 17.4625 4.2 16.595C4.88125 15.8 6.065 15.025 8.15 15.0013V15ZM3.875 9.375C3.875 8.38044 4.27009 7.42661 4.97335 6.72335C5.67661 6.02009 6.63044 5.625 7.625 5.625C8.61956 5.625 9.57339 6.02009 10.2767 6.72335C10.9799 7.42661 11.375 8.38044 11.375 9.375C11.375 10.3696 10.9799 11.3234 10.2767 12.0267C9.57339 12.7299 8.61956 13.125 7.625 13.125C6.63044 13.125 5.67661 12.7299 4.97335 12.0267C4.27009 11.3234 3.875 10.3696 3.875 9.375ZM7.625 6.875C6.96196 6.875 6.32607 7.13839 5.85723 7.60723C5.38839 8.07607 5.125 8.71196 5.125 9.375C5.125 10.038 5.38839 10.6739 5.85723 11.1428C6.32607 11.6116 6.96196 11.875 7.625 11.875C8.28804 11.875 8.92393 11.6116 9.39277 11.1428C9.86161 10.6739 10.125 10.038 10.125 9.375C10.125 8.71196 9.86161 8.07607 9.39277 7.60723C8.92393 7.13839 8.28804 6.875 7.625 6.875Z" fill="#CC0000"/>
</svg>
