<svg width="24" height="24" viewBox="0 0 24 24" fill="none" xmlns="http://www.w3.org/2000/svg">
<g clip-path="url(#clip0_9008_43003)">
<path d="M5.07155 6.90385H17.9287C18.6107 6.90385 19.2647 7.1956 19.747 7.71494C20.2292 8.23427 20.5001 8.93863 20.5001 9.67308V13.8269C20.5001 14.5614 20.2292 15.2657 19.747 15.7851C19.2647 16.3044 18.6107 16.5962 17.9287 16.5962H5.07155C4.38957 16.5962 3.73551 16.3044 3.25328 15.7851C2.77104 15.2657 2.50012 14.5614 2.50012 13.8269V9.67308C2.50012 8.93863 2.77104 8.23427 3.25328 7.71494C3.73551 7.1956 4.38957 6.90385 5.07155 6.90385ZM5.07155 8.28846C4.73056 8.28846 4.40353 8.43434 4.16241 8.69401C3.92129 8.95367 3.78584 9.30585 3.78584 9.67308V13.8269C3.78584 14.1941 3.92129 14.5463 4.16241 14.806C4.40353 15.0657 4.73056 15.2115 5.07155 15.2115H17.9287C18.2697 15.2115 18.5967 15.0657 18.8378 14.806C19.0789 14.5463 19.2144 14.1941 19.2144 13.8269V9.67308C19.2144 9.30585 19.0789 8.95367 18.8378 8.69401C18.5967 8.43434 18.2697 8.28846 17.9287 8.28846H5.07155ZM2.50012 3.44231C2.50012 3.2587 2.56785 3.08261 2.68841 2.95277C2.80897 2.82294 2.97248 2.75 3.14298 2.75H19.8573C20.0278 2.75 20.1913 2.82294 20.3118 2.95277C20.4324 3.08261 20.5001 3.2587 20.5001 3.44231C20.5001 3.62592 20.4324 3.80201 20.3118 3.93184C20.1913 4.06168 20.0278 4.13462 19.8573 4.13462H3.14298C2.97248 4.13462 2.80897 4.06168 2.68841 3.93184C2.56785 3.80201 2.50012 3.62592 2.50012 3.44231ZM2.50012 20.0577C2.50012 19.8741 2.56785 19.698 2.68841 19.5682C2.80897 19.4383 2.97248 19.3654 3.14298 19.3654H19.8573C20.0278 19.3654 20.1913 19.4383 20.3118 19.5682C20.4324 19.698 20.5001 19.8741 20.5001 20.0577C20.5001 20.2413 20.4324 20.4174 20.3118 20.5472C20.1913 20.6771 20.0278 20.75 19.8573 20.75H3.14298C2.97248 20.75 2.80897 20.6771 2.68841 20.5472C2.56785 20.4174 2.50012 20.2413 2.50012 20.0577Z" fill="#CC0000"/>
</g>
<defs>
<clipPath id="clip0_9008_43003">
<rect width="24" height="24" fill="white"/>
</clipPath>
</defs>
</svg>
