<svg width="24" height="24" viewBox="0 0 24 24" fill="none" xmlns="http://www.w3.org/2000/svg">
<path d="M5.7125 3.4375C5.82986 3.30029 5.97555 3.19014 6.13954 3.11461C6.30354 3.03909 6.48195 2.99999 6.6625 3H17.3375C17.5181 2.99999 17.6965 3.03909 17.8605 3.11461C18.0245 3.19014 18.1701 3.30029 18.2875 3.4375L21.5487 7.2425C21.8399 7.58229 22 8.01502 22 8.4625V8.78125C22.0001 9.39997 21.8068 10.0033 21.4473 10.5068C21.0877 11.0103 20.5798 11.3889 19.9946 11.5897C19.4094 11.7905 18.776 11.8034 18.1831 11.6266C17.5901 11.4498 17.0673 11.0922 16.6875 10.6038C16.4102 10.961 16.0548 11.25 15.6485 11.4487C15.2423 11.6473 14.796 11.7504 14.3438 11.75C13.8915 11.7505 13.4452 11.6475 13.0389 11.4488C12.6326 11.2501 12.2773 10.961 12 10.6038C11.7227 10.961 11.3674 11.2501 10.9611 11.4488C10.5548 11.6475 10.1085 11.7505 9.65625 11.75C9.20401 11.7505 8.75765 11.6475 8.3514 11.4488C7.94514 11.2501 7.58976 10.961 7.3125 10.6038C6.93274 11.0922 6.40985 11.4498 5.81692 11.6266C5.22399 11.8034 4.59065 11.7905 4.00541 11.5897C3.42017 11.3889 2.91228 11.0103 2.55273 10.5068C2.19318 10.0033 1.99993 9.39997 2 8.78125V8.4625C2.00002 8.01502 2.16007 7.58229 2.45125 7.2425L5.71375 3.43625L5.7125 3.4375ZM7.9375 8.78125C7.9375 9.23709 8.11858 9.67426 8.44091 9.99659C8.76324 10.3189 9.20041 10.5 9.65625 10.5C10.1121 10.5 10.5493 10.3189 10.8716 9.99659C11.1939 9.67426 11.375 9.23709 11.375 8.78125C11.375 8.61549 11.4408 8.45652 11.5581 8.33931C11.6753 8.2221 11.8342 8.15625 12 8.15625C12.1658 8.15625 12.3247 8.2221 12.4419 8.33931C12.5592 8.45652 12.625 8.61549 12.625 8.78125C12.625 9.23709 12.8061 9.67426 13.1284 9.99659C13.4507 10.3189 13.8879 10.5 14.3438 10.5C14.7996 10.5 15.2368 10.3189 15.5591 9.99659C15.8814 9.67426 16.0625 9.23709 16.0625 8.78125C16.0625 8.61549 16.1283 8.45652 16.2456 8.33931C16.3628 8.2221 16.5217 8.15625 16.6875 8.15625C16.8533 8.15625 17.0122 8.2221 17.1294 8.33931C17.2467 8.45652 17.3125 8.61549 17.3125 8.78125C17.3125 9.23709 17.4936 9.67426 17.8159 9.99659C18.1382 10.3189 18.5754 10.5 19.0312 10.5C19.4871 10.5 19.9243 10.3189 20.2466 9.99659C20.5689 9.67426 20.75 9.23709 20.75 8.78125V8.4625C20.75 8.31353 20.6968 8.16946 20.6 8.05625L17.3375 4.25H6.6625L3.4 8.05625C3.30318 8.16946 3.24999 8.31353 3.25 8.4625V8.78125C3.25 9.23709 3.43108 9.67426 3.75341 9.99659C4.07574 10.3189 4.51291 10.5 4.96875 10.5C5.42459 10.5 5.86176 10.3189 6.18409 9.99659C6.50642 9.67426 6.6875 9.23709 6.6875 8.78125C6.6875 8.61549 6.75335 8.45652 6.87056 8.33931C6.98777 8.2221 7.14674 8.15625 7.3125 8.15625C7.47826 8.15625 7.63723 8.2221 7.75444 8.33931C7.87165 8.45652 7.9375 8.61549 7.9375 8.78125ZM3.875 12.375C4.04076 12.375 4.19973 12.4408 4.31694 12.5581C4.43415 12.6753 4.5 12.8342 4.5 13V20.5H19.5V13C19.5 12.8342 19.5658 12.6753 19.6831 12.5581C19.8003 12.4408 19.9592 12.375 20.125 12.375C20.2908 12.375 20.4497 12.4408 20.5669 12.5581C20.6842 12.6753 20.75 12.8342 20.75 13V20.5H21.375C21.5408 20.5 21.6997 20.5658 21.8169 20.6831C21.9342 20.8003 22 20.9592 22 21.125C22 21.2908 21.9342 21.4497 21.8169 21.5669C21.6997 21.6842 21.5408 21.75 21.375 21.75H2.625C2.45924 21.75 2.30027 21.6842 2.18306 21.5669C2.06585 21.4497 2 21.2908 2 21.125C2 20.9592 2.06585 20.8003 2.18306 20.6831C2.30027 20.5658 2.45924 20.5 2.625 20.5H3.25V13C3.25 12.8342 3.31585 12.6753 3.43306 12.5581C3.55027 12.4408 3.70924 12.375 3.875 12.375ZM6.375 13C6.54076 13 6.69973 13.0658 6.81694 13.1831C6.93415 13.3003 7 13.4592 7 13.625V18H17V13.625C17 13.4592 17.0658 13.3003 17.1831 13.1831C17.3003 13.0658 17.4592 13 17.625 13C17.7908 13 17.9497 13.0658 18.0669 13.1831C18.1842 13.3003 18.25 13.4592 18.25 13.625V18C18.25 18.3315 18.1183 18.6495 17.8839 18.8839C17.6495 19.1183 17.3315 19.25 17 19.25H7C6.66848 19.25 6.35054 19.1183 6.11612 18.8839C5.8817 18.6495 5.75 18.3315 5.75 18V13.625C5.75 13.4592 5.81585 13.3003 5.93306 13.1831C6.05027 13.0658 6.20924 13 6.375 13Z" fill="#CC0000"/>
</svg>
