<svg width="24" height="24" viewBox="0 0 24 24" fill="none" xmlns="http://www.w3.org/2000/svg">
<path d="M10 4C9.82319 4 9.65362 4.07024 9.5286 4.19526C9.40357 4.32029 9.33333 4.48986 9.33333 4.66667C9.33333 4.84348 9.40357 5.01305 9.5286 5.13807C9.65362 5.2631 9.82319 5.33333 10 5.33333H14C14.1768 5.33333 14.3464 5.2631 14.4714 5.13807C14.5964 5.01305 14.6667 4.84348 14.6667 4.66667C14.6667 4.48986 14.5964 4.32029 14.4714 4.19526C14.3464 4.07024 14.1768 4 14 4H10ZM16 12C16 13.0609 15.5786 14.0783 14.8284 14.8284C14.0783 15.5786 13.0609 16 12 16C10.9391 16 9.92172 15.5786 9.17157 14.8284C8.42143 14.0783 8 13.0609 8 12C8 10.9391 8.42143 9.92172 9.17157 9.17157C9.92172 8.42143 10.9391 8 12 8C13.0609 8 14.0783 8.42143 14.8284 9.17157C15.5786 9.92172 16 10.9391 16 12Z" fill="#CC0000"/>
<path d="M7.33333 1.33337C6.44928 1.33337 5.60143 1.68456 4.97631 2.30968C4.35119 2.93481 4 3.78265 4 4.66671V20C4 20.7073 4.28095 21.3856 4.78105 21.8857C5.28115 22.3858 5.95942 22.6667 6.66667 22.6667H17.3333C18.0406 22.6667 18.7189 22.3858 19.219 21.8857C19.719 21.3856 20 20.7073 20 20V4.66671C20 3.78265 19.6488 2.93481 19.0237 2.30968C18.3986 1.68456 17.5507 1.33337 16.6667 1.33337L7.33333 1.33337ZM5.33333 4.66671C5.33333 4.13627 5.54405 3.62757 5.91912 3.25249C6.29419 2.87742 6.8029 2.66671 7.33333 2.66671H16.6667C17.1971 2.66671 17.7058 2.87742 18.0809 3.25249C18.456 3.62757 18.6667 4.13627 18.6667 4.66671V19.06C18.3468 18.8042 17.9998 18.5842 17.632 18.404C16.5227 17.8494 14.7507 17.3334 12 17.3334C9.24933 17.3334 7.47733 17.8494 6.368 18.404C6.00016 18.5842 5.65319 18.8042 5.33333 19.06V4.66671Z" fill="#CC0000"/>
</svg>
