<svg width="25" height="24" viewBox="0 0 25 24" fill="none" xmlns="http://www.w3.org/2000/svg">
<mask id="mask0_19052_74606" style="mask-type:alpha" maskUnits="userSpaceOnUse" x="0" y="0" width="25" height="24">
<rect x="0.5" width="24" height="24" fill="current"/>
</mask>
<g mask="url(#mask0_19052_74606)">
<path d="M5.80775 10.8086C5.30258 10.8086 4.875 10.6336 4.525 10.2836C4.175 9.93359 4 9.50601 4 9.00084V5.61634C4 5.11118 4.175 4.68359 4.525 4.33359C4.875 3.98359 5.30258 3.80859 5.80775 3.80859H19.1923C19.6974 3.80859 20.125 3.98359 20.475 4.33359C20.825 4.68359 21 5.11118 21 5.61634V9.00084C21 9.50601 20.825 9.93359 20.475 10.2836C20.125 10.6336 19.6974 10.8086 19.1923 10.8086H5.80775ZM5.80775 9.30859H19.1923C19.2692 9.30859 19.3398 9.27651 19.4038 9.21234C19.4679 9.14834 19.5 9.07784 19.5 9.00084V5.61634C19.5 5.53934 19.4679 5.46884 19.4038 5.40484C19.3398 5.34068 19.2692 5.30859 19.1923 5.30859H5.80775C5.73075 5.30859 5.66025 5.34068 5.59625 5.40484C5.53208 5.46884 5.5 5.53934 5.5 5.61634V9.00084C5.5 9.07784 5.53208 9.14834 5.59625 9.21234C5.66025 9.27651 5.73075 9.30859 5.80775 9.30859ZM5.80775 20.1931C5.30258 20.1931 4.875 20.0181 4.525 19.6681C4.175 19.3181 4 18.8905 4 18.3853V15.0008C4 14.4957 4.175 14.0681 4.525 13.7181C4.875 13.3681 5.30258 13.1931 5.80775 13.1931H19.1923C19.6974 13.1931 20.125 13.3681 20.475 13.7181C20.825 14.0681 21 14.4957 21 15.0008V18.3853C21 18.8905 20.825 19.3181 20.475 19.6681C20.125 20.0181 19.6974 20.1931 19.1923 20.1931H5.80775ZM5.80775 18.6931H19.1923C19.2692 18.6931 19.3398 18.661 19.4038 18.5968C19.4679 18.5328 19.5 18.4623 19.5 18.3853V15.0008C19.5 14.9238 19.4679 14.8533 19.4038 14.7893C19.3398 14.7252 19.2692 14.6931 19.1923 14.6931H5.80775C5.73075 14.6931 5.66025 14.7252 5.59625 14.7893C5.53208 14.8533 5.5 14.9238 5.5 15.0008V18.3853C5.5 18.4623 5.53208 18.5328 5.59625 18.5968C5.66025 18.661 5.73075 18.6931 5.80775 18.6931Z" fill="current"/>
</g>
</svg>
