<svg width="24" height="24" viewBox="0 0 24 24" fill="none" xmlns="http://www.w3.org/2000/svg">
<path d="M8.25 12C9.24456 12 10.1984 11.6049 10.9017 10.9016C11.6049 10.1984 12 9.24456 12 8.25C12 7.25544 11.6049 6.30161 10.9017 5.59835C10.1984 4.89509 9.24456 4.5 8.25 4.5C7.25544 4.5 6.30161 4.89509 5.59835 5.59835C4.89509 6.30161 4.5 7.25544 4.5 8.25C4.5 9.24456 4.89509 10.1984 5.59835 10.9016C6.30161 11.6049 7.25544 12 8.25 12ZM20.25 9C20.25 9.79565 19.9339 10.5587 19.3713 11.1213C18.8087 11.6839 18.0456 12 17.25 12C16.4544 12 15.6913 11.6839 15.1287 11.1213C14.5661 10.5587 14.25 9.79565 14.25 9C14.25 8.20435 14.5661 7.44129 15.1287 6.87868C15.6913 6.31607 16.4544 6 17.25 6C18.0456 6 18.8087 6.31607 19.3713 6.87868C19.9339 7.44129 20.25 8.20435 20.25 9ZM10.8528 13.5C11.2092 13.5 11.3876 13.9309 11.1357 14.1828L9.6585 15.66C9.23715 16.0819 9.00048 16.6537 9.00048 17.25C9.00048 17.8463 9.23715 18.4181 9.6585 18.84L10.2639 19.4462C10.4808 19.6635 10.3814 20.0313 10.0799 20.0892C9.47759 20.205 8.86445 20.259 8.25 20.25C2.25 20.25 2.25 15.8625 2.25 15.8625V15.75C2.25 15.1533 2.48705 14.581 2.90901 14.159C3.33097 13.7371 3.90326 13.5 4.5 13.5H10.8528ZM14.781 14.781C14.9218 14.6402 15.0009 14.4492 15.0009 14.25C15.0009 14.0508 14.9218 13.8598 14.781 13.719C14.6402 13.5782 14.4492 13.4991 14.25 13.4991C14.0508 13.4991 13.8598 13.5782 13.719 13.719L10.719 16.719C10.6492 16.7887 10.5937 16.8714 10.5559 16.9625C10.5181 17.0537 10.4987 17.1513 10.4987 17.25C10.4987 17.3486 10.5181 17.4463 10.5559 17.5374C10.5937 17.6286 10.6492 17.7113 10.719 17.781L13.719 20.781C13.8598 20.9218 14.0508 21.0009 14.25 21.0009C14.4492 21.0009 14.6402 20.9218 14.781 20.781C14.9218 20.6402 15.0009 20.4492 15.0009 20.25C15.0009 20.0508 14.9218 19.8598 14.781 19.719L13.0605 18H19.9395L18.219 19.719C18.1493 19.7887 18.094 19.8715 18.0562 19.9626C18.0185 20.0537 17.9991 20.1514 17.9991 20.25C17.9991 20.3486 18.0185 20.4463 18.0562 20.5374C18.094 20.6285 18.1493 20.7113 18.219 20.781C18.2887 20.8507 18.3715 20.906 18.4626 20.9438C18.5537 20.9815 18.6514 21.0009 18.75 21.0009C18.8486 21.0009 18.9463 20.9815 19.0374 20.9438C19.1285 20.906 19.2113 20.8507 19.281 20.781L22.281 17.781C22.3508 17.7113 22.4063 17.6286 22.4441 17.5374C22.4819 17.4463 22.5013 17.3486 22.5013 17.25C22.5013 17.1513 22.4819 17.0537 22.4441 16.9625C22.4063 16.8714 22.3508 16.7887 22.281 16.719L19.281 13.719C19.2113 13.6493 19.1285 13.594 19.0374 13.5562C18.9463 13.5185 18.8486 13.4991 18.75 13.4991C18.6514 13.4991 18.5537 13.5185 18.4626 13.5562C18.3715 13.594 18.2887 13.6493 18.219 13.719C18.1493 13.7887 18.094 13.8715 18.0562 13.9626C18.0185 14.0537 17.9991 14.1514 17.9991 14.25C17.9991 14.3486 18.0185 14.4463 18.0562 14.5374C18.094 14.6285 18.1493 14.7113 18.219 14.781L19.9395 16.5H13.0605L14.781 14.781Z" fill="current"/>
</svg>
