<svg width="20" height="20" viewBox="0 0 20 20" fill="none" xmlns="http://www.w3.org/2000/svg">
<path d="M6.06994 8.09282L5.71706 7.40727C5.57642 7.13404 5.5061 6.99741 5.40076 6.89857C5.31416 6.81731 5.21104 6.75499 5.09817 6.71573C4.96088 6.66797 4.80509 6.66797 4.49352 6.66797C4.03552 6.66797 3.80652 6.66797 3.62778 6.7556C3.48159 6.82727 3.35958 6.93893 3.27642 7.07714C3.17475 7.24611 3.15844 7.47061 3.12581 7.91959L2.56351 15.6566C2.47233 16.9111 2.42675 17.5383 2.80398 17.9365C3.18122 18.3346 3.82107 18.3346 5.10075 18.3346H14.8992C16.1789 18.3346 16.8187 18.3346 17.196 17.9365C17.5732 17.5383 17.5277 16.9111 17.4365 15.6566L16.8742 7.91959C16.8416 7.47061 16.8252 7.24611 16.7236 7.07714C16.6404 6.93893 16.5184 6.82727 16.3722 6.7556C16.1935 6.66797 15.9645 6.66797 15.5065 6.66797C15.1949 6.66797 15.0391 6.66797 14.9018 6.71573C14.789 6.75499 14.6858 6.81731 14.5992 6.89857C14.4939 6.99741 14.4236 7.13403 14.2829 7.40728L13.9301 8.09282C13.8298 8.2875 13.7797 8.3848 13.7122 8.46189C13.5975 8.59272 13.4442 8.68539 13.2737 8.72689C13.1732 8.7513 13.0622 8.7513 12.8402 8.7513C12.5922 8.7513 12.4682 8.7513 12.3585 8.72189C12.1719 8.6718 12.0084 8.56055 11.8951 8.40664C11.8284 8.31615 11.7847 8.20207 11.6972 7.97389L11.5961 7.70964C11.4102 7.22466 11.3174 6.98217 11.1218 6.83676C11.1027 6.82256 11.0831 6.80915 11.0628 6.79659C10.8554 6.66797 10.5918 6.66797 10.0645 6.66797H9.9355C9.40816 6.66797 9.14458 6.66797 8.93725 6.79659C8.91691 6.80915 8.89725 6.82256 8.87816 6.83676C8.68258 6.98217 8.58975 7.22466 8.40391 7.70964L8.30272 7.97389C8.21532 8.20207 8.17162 8.31615 8.10494 8.40664C7.99155 8.56055 7.82804 8.6718 7.64152 8.72189C7.53184 8.7513 7.40781 8.7513 7.15973 8.7513C6.93774 8.7513 6.82674 8.7513 6.72635 8.72689C6.55574 8.68539 6.40246 8.59272 6.28775 8.46189C6.22025 8.3848 6.17015 8.2875 6.06994 8.09282Z" stroke="#8791A9" stroke-width="1.25" stroke-linecap="round" stroke-linejoin="round"/>
<path d="M10 4.16797C11.2425 4.73759 13.3333 3.7513 13.3333 1.66797C11.9648 2.18704 11.2587 2.17984 10 1.66797V4.16797ZM10 4.16797V6.66797" stroke="#8791A9" stroke-width="1.25" stroke-linecap="round" stroke-linejoin="round"/>
<path d="M7.5 18.335L8.00647 15.8026C8.1261 15.2045 8.18592 14.9054 8.34625 14.6844C8.74458 14.1352 9.38433 14.1684 10 14.1684C10.6157 14.1684 11.2554 14.1352 11.6537 14.6844C11.8141 14.9054 11.8739 15.2045 11.9935 15.8026L12.5 18.335" stroke="#8791A9" stroke-width="1.25" stroke-linecap="round" stroke-linejoin="round"/>
<path d="M9.16602 11.668H10.8327" stroke="#8791A9" stroke-width="1.25" stroke-linecap="round" stroke-linejoin="round"/>
</svg>
