<svg width="16" height="16" viewBox="0 0 16 16" fill="none" xmlns="http://www.w3.org/2000/svg">
<mask id="mask0_22537_52216" style="mask-type:alpha" maskUnits="userSpaceOnUse" x="0" y="0" width="16" height="16">
<rect width="16" height="16" fill="#D9D9D9"/>
</mask>
<g mask="url(#mask0_22537_52216)">
<path d="M3.53866 7.20573C3.20188 7.20573 2.91683 7.08906 2.6835 6.85573C2.45016 6.6224 2.3335 6.33734 2.3335 6.00056V3.74423C2.3335 3.40745 2.45016 3.1224 2.6835 2.88906C2.91683 2.65573 3.20188 2.53906 3.53866 2.53906H12.4617C12.7984 2.53906 13.0835 2.65573 13.3168 2.88906C13.5502 3.1224 13.6668 3.40745 13.6668 3.74423V6.00056C13.6668 6.33734 13.5502 6.6224 13.3168 6.85573C13.0835 7.08906 12.7984 7.20573 12.4617 7.20573H3.53866ZM3.53866 6.20573H12.4617C12.513 6.20573 12.56 6.18434 12.6027 6.14156C12.6454 6.0989 12.6668 6.0519 12.6668 6.00056V3.74423C12.6668 3.6929 12.6454 3.6459 12.6027 3.60323C12.56 3.56045 12.513 3.53906 12.4617 3.53906H3.53866C3.48733 3.53906 3.44033 3.56045 3.39766 3.60323C3.35489 3.6459 3.3335 3.6929 3.3335 3.74423V6.00056C3.3335 6.0519 3.35489 6.0989 3.39766 6.14156C3.44033 6.18434 3.48733 6.20573 3.53866 6.20573ZM3.53866 13.4621C3.20188 13.4621 2.91683 13.3454 2.6835 13.1121C2.45016 12.8787 2.3335 12.5937 2.3335 12.2569V10.0006C2.3335 9.66378 2.45016 9.37873 2.6835 9.1454C2.91683 8.91206 3.20188 8.7954 3.53866 8.7954H12.4617C12.7984 8.7954 13.0835 8.91206 13.3168 9.1454C13.5502 9.37873 13.6668 9.66378 13.6668 10.0006V12.2569C13.6668 12.5937 13.5502 12.8787 13.3168 13.1121C13.0835 13.3454 12.7984 13.4621 12.4617 13.4621H3.53866ZM3.53866 12.4621H12.4617C12.513 12.4621 12.56 12.4407 12.6027 12.3979C12.6454 12.3552 12.6668 12.3082 12.6668 12.2569V10.0006C12.6668 9.94923 12.6454 9.90223 12.6027 9.85956C12.56 9.81678 12.513 9.7954 12.4617 9.7954H3.53866C3.48733 9.7954 3.44033 9.81678 3.39766 9.85956C3.35489 9.90223 3.3335 9.94923 3.3335 10.0006V12.2569C3.3335 12.3082 3.35489 12.3552 3.39766 12.3979C3.44033 12.4407 3.48733 12.4621 3.53866 12.4621Z" fill="#CC0000"/>
</g>
</svg>
