<svg width="16" height="16" viewBox="0 0 16 16" fill="none" xmlns="http://www.w3.org/2000/svg">
<mask id="mask0_22537_51947" style="mask-type:alpha" maskUnits="userSpaceOnUse" x="0" y="0" width="16" height="16">
<rect width="16" height="16" fill="#D9D9D9"/>
</mask>
<g mask="url(#mask0_22537_51947)">
<path d="M3.53863 14.3334C3.20187 14.3334 2.91683 14.2167 2.6835 13.9834C2.45016 13.7501 2.3335 13.465 2.3335 13.1283V4.20523C2.3335 3.86847 2.45016 3.58343 2.6835 3.35009C2.91683 3.11676 3.20187 3.00009 3.53863 3.00009H4.46171V2.10264C4.46171 1.9565 4.51065 1.83449 4.60851 1.73663C4.70637 1.63877 4.82837 1.58984 4.97453 1.58984C5.12067 1.58984 5.24268 1.63877 5.34055 1.73663C5.4384 1.83449 5.48733 1.9565 5.48733 2.10264V3.00009H10.5386V2.08983C10.5386 1.94795 10.5865 1.82915 10.6822 1.73343C10.7779 1.6377 10.8967 1.58984 11.0386 1.58984C11.1805 1.58984 11.2993 1.6377 11.395 1.73343C11.4907 1.82915 11.5386 1.94795 11.5386 2.08983V3.00009H12.4617C12.7984 3.00009 13.0835 3.11676 13.3168 3.35009C13.5501 3.58343 13.6668 3.86847 13.6668 4.20523V13.1283C13.6668 13.465 13.5501 13.7501 13.3168 13.9834C13.0835 14.2167 12.7984 14.3334 12.4617 14.3334H3.53863ZM3.53863 13.3334H12.4617C12.513 13.3334 12.56 13.312 12.6027 13.2693C12.6454 13.2266 12.6668 13.1795 12.6668 13.1283V6.87189H3.33348V13.1283C3.33348 13.1795 3.35485 13.2266 3.39758 13.2693C3.44032 13.312 3.48734 13.3334 3.53863 13.3334ZM3.33348 5.87191H12.6668V4.20523C12.6668 4.15394 12.6454 4.10692 12.6027 4.06418C12.56 4.02144 12.513 4.00008 12.4617 4.00008H3.53863C3.48734 4.00008 3.44032 4.02144 3.39758 4.06418C3.35485 4.10692 3.33348 4.15394 3.33348 4.20523V5.87191ZM8.00015 9.38469C7.8369 9.38469 7.6978 9.32722 7.58285 9.21226C7.46789 9.0973 7.41041 8.9582 7.41041 8.79496C7.41041 8.63172 7.46789 8.49262 7.58285 8.37766C7.6978 8.2627 7.8369 8.20523 8.00015 8.20523C8.16339 8.20523 8.30249 8.2627 8.41745 8.37766C8.5324 8.49262 8.58988 8.63172 8.58988 8.79496C8.58988 8.9582 8.5324 9.0973 8.41745 9.21226C8.30249 9.32722 8.16339 9.38469 8.00015 9.38469ZM5.33348 9.38469C5.17024 9.38469 5.03114 9.32722 4.91618 9.21226C4.80122 9.0973 4.74375 8.9582 4.74375 8.79496C4.74375 8.63172 4.80122 8.49262 4.91618 8.37766C5.03114 8.2627 5.17024 8.20523 5.33348 8.20523C5.49672 8.20523 5.63582 8.2627 5.75078 8.37766C5.86574 8.49262 5.92321 8.63172 5.92321 8.79496C5.92321 8.9582 5.86574 9.0973 5.75078 9.21226C5.63582 9.32722 5.49672 9.38469 5.33348 9.38469ZM10.6668 9.38469C10.5036 9.38469 10.3645 9.32722 10.2495 9.21226C10.1346 9.0973 10.0771 8.9582 10.0771 8.79496C10.0771 8.63172 10.1346 8.49262 10.2495 8.37766C10.3645 8.2627 10.5036 8.20523 10.6668 8.20523C10.8301 8.20523 10.9692 8.2627 11.0841 8.37766C11.1991 8.49262 11.2565 8.63172 11.2565 8.79496C11.2565 8.9582 11.1991 9.0973 11.0841 9.21226C10.9692 9.32722 10.8301 9.38469 10.6668 9.38469ZM8.00015 12.0001C7.8369 12.0001 7.6978 11.9426 7.58285 11.8276C7.46789 11.7127 7.41041 11.5736 7.41041 11.4103C7.41041 11.2471 7.46789 11.108 7.58285 10.993C7.6978 10.8781 7.8369 10.8206 8.00015 10.8206C8.16339 10.8206 8.30249 10.8781 8.41745 10.993C8.5324 11.108 8.58988 11.2471 8.58988 11.4103C8.58988 11.5736 8.5324 11.7127 8.41745 11.8276C8.30249 11.9426 8.16339 12.0001 8.00015 12.0001ZM5.33348 12.0001C5.17024 12.0001 5.03114 11.9426 4.91618 11.8276C4.80122 11.7127 4.74375 11.5736 4.74375 11.4103C4.74375 11.2471 4.80122 11.108 4.91618 10.993C5.03114 10.8781 5.17024 10.8206 5.33348 10.8206C5.49672 10.8206 5.63582 10.8781 5.75078 10.993C5.86574 11.108 5.92321 11.2471 5.92321 11.4103C5.92321 11.5736 5.86574 11.7127 5.75078 11.8276C5.63582 11.9426 5.49672 12.0001 5.33348 12.0001ZM10.6668 12.0001C10.5036 12.0001 10.3645 11.9426 10.2495 11.8276C10.1346 11.7127 10.0771 11.5736 10.0771 11.4103C10.0771 11.2471 10.1346 11.108 10.2495 10.993C10.3645 10.8781 10.5036 10.8206 10.6668 10.8206C10.8301 10.8206 10.9692 10.8781 11.0841 10.993C11.1991 11.108 11.2565 11.2471 11.2565 11.4103C11.2565 11.5736 11.1991 11.7127 11.0841 11.8276C10.9692 11.9426 10.8301 12.0001 10.6668 12.0001Z" fill="#535C76"/>
</g>
</svg>
