<svg width="16" height="16" viewBox="0 0 16 16" fill="none" xmlns="http://www.w3.org/2000/svg">
<mask id="mask0_22537_51959" style="mask-type:alpha" maskUnits="userSpaceOnUse" x="0" y="0" width="16" height="16">
<rect width="16" height="16" fill="#D9D9D9"/>
</mask>
<g mask="url(#mask0_22537_51959)">
<path d="M4.66649 8.99997V13.3333C4.66649 13.475 4.61855 13.5937 4.52267 13.6896C4.4268 13.7854 4.308 13.8333 4.16627 13.8333C4.02455 13.8333 3.90583 13.7854 3.8101 13.6896C3.71437 13.5937 3.6665 13.475 3.6665 13.3333V3.60257C3.6665 3.43185 3.72425 3.28874 3.83975 3.17325C3.95524 3.05775 4.09835 3 4.26907 3H8.56519C8.70744 3 8.83446 3.04466 8.94624 3.13398C9.05801 3.22329 9.12843 3.33932 9.15749 3.48205L9.33057 4.33333H12.3972C12.568 4.33333 12.7111 4.39084 12.8266 4.50585C12.9421 4.62085 12.9998 4.76335 12.9998 4.93335V9.73342C12.9998 9.90342 12.9421 10.0459 12.8266 10.1609C12.7111 10.2758 12.568 10.3333 12.3972 10.3333H9.43445C9.2922 10.3333 9.16518 10.2886 9.0534 10.1993C8.94163 10.11 8.87121 9.99398 8.84215 9.85125L8.66907 8.99997H4.66649ZM9.76649 9.33332H11.9998V5.33332H8.99854C8.85628 5.33332 8.72927 5.28866 8.61749 5.19935C8.50571 5.11003 8.43529 4.994 8.40624 4.85127L8.23315 3.99998H4.66649V7.99998H9.0011C9.14336 7.99998 9.27038 8.04464 9.38215 8.13395C9.49393 8.22327 9.56435 8.3393 9.5934 8.48203L9.76649 9.33332Z" fill="#535C76"/>
</g>
</svg>
