<svg width="16" height="16" viewBox="0 0 16 16" fill="none" xmlns="http://www.w3.org/2000/svg">
<mask id="mask0_22537_51991" style="mask-type:alpha" maskUnits="userSpaceOnUse" x="0" y="0" width="16" height="16">
<rect width="16" height="16" fill="#D9D9D9"/>
</mask>
<g mask="url(#mask0_22537_51991)">
<path d="M7.01632 8.33328C6.76691 8.33328 6.56204 8.23906 6.40171 8.0506C6.24137 7.86214 6.18257 7.64228 6.22531 7.391L6.39326 6.35768C6.46505 5.96111 6.65265 5.63568 6.95607 5.38142C7.25949 5.12714 7.60783 5 8.00111 5C8.40354 5 8.75646 5.12714 9.05988 5.38142C9.3633 5.63568 9.5509 5.96111 9.62269 6.35768L9.79064 7.391C9.83337 7.64228 9.77457 7.86214 9.61424 8.0506C9.45391 8.23906 9.24904 8.33328 8.99963 8.33328H7.01632ZM2.28504 8.88713C2.06744 8.89824 1.87904 8.85606 1.71982 8.76058C1.56061 8.66511 1.45689 8.51712 1.40864 8.31662C1.38642 8.22944 1.38193 8.14333 1.39517 8.0583C1.40843 7.97326 1.433 7.89199 1.46889 7.8145C1.46889 7.82418 1.46334 7.8048 1.45222 7.75637C1.41538 7.70961 1.38545 7.65818 1.36242 7.60208C1.33939 7.54597 1.32303 7.48375 1.31334 7.41542C1.29397 7.29828 1.30791 7.188 1.35516 7.08458C1.4024 6.98117 1.46382 6.89186 1.53941 6.81665C1.54369 6.81665 1.55266 6.80767 1.56632 6.78972C1.5856 6.60928 1.6603 6.45734 1.79041 6.33388C1.92051 6.21043 2.07957 6.1487 2.26761 6.1487C2.28812 6.1487 2.37871 6.16665 2.53939 6.20255L2.58299 6.1923C2.62999 6.14314 2.6911 6.10628 2.76632 6.08172C2.84154 6.05714 2.92145 6.04485 3.00606 6.04485C3.11149 6.04485 3.20494 6.06109 3.28641 6.09357C3.36789 6.12605 3.43239 6.17744 3.47992 6.24773C3.48944 6.24773 3.49657 6.25024 3.50132 6.25527C3.50608 6.26029 3.51321 6.2628 3.52272 6.2628C3.65264 6.27391 3.76816 6.31484 3.86929 6.38558C3.97042 6.45633 4.04507 6.55301 4.09322 6.67562C4.11117 6.74485 4.11844 6.80917 4.11502 6.86857C4.1116 6.92797 4.09878 6.98673 4.07656 7.04485C4.07656 7.05168 4.08211 7.07177 4.09322 7.1051C4.16246 7.17433 4.21502 7.24762 4.25091 7.32497C4.28681 7.40232 4.30476 7.48459 4.30476 7.57177C4.30476 7.60339 4.27784 7.70296 4.22399 7.87048C4.21716 7.88415 4.21716 7.90423 4.22399 7.93073C4.22827 7.94356 4.23724 8.01962 4.25091 8.15893C4.25091 8.35883 4.1674 8.53017 4.00039 8.67295C3.83337 8.81574 3.63056 8.88713 3.39196 8.88713H2.28504ZM13.1755 8.92303C12.8625 8.92303 12.5937 8.81103 12.3689 8.58703C12.1441 8.36304 12.0317 8.09378 12.0317 7.77923C12.0317 7.66486 12.0483 7.55802 12.0814 7.45872C12.1145 7.35942 12.1595 7.26248 12.2163 7.16792L11.8158 6.81438C11.7204 6.73897 11.7037 6.64422 11.7657 6.53012C11.8276 6.41602 11.9158 6.35897 12.0302 6.35897H13.174C13.4885 6.35897 13.7571 6.47044 13.9797 6.69338C14.2024 6.91633 14.3137 7.18433 14.3137 7.4974V7.78202C14.3137 8.09313 14.2023 8.36107 13.9794 8.58585C13.7565 8.81064 13.4885 8.92303 13.1755 8.92303ZM0.909908 11.8589C0.746463 11.8589 0.609447 11.8036 0.498858 11.693C0.388291 11.5825 0.333008 11.4454 0.333008 11.282V11.0461C0.333008 10.5957 0.56223 10.2307 1.02067 9.95123C1.47913 9.67174 2.08346 9.532 2.83366 9.532C2.9691 9.532 3.09751 9.53649 3.21887 9.54547C3.34025 9.55443 3.45777 9.57003 3.57144 9.59225C3.4447 9.78728 3.3519 9.99694 3.29306 10.2212C3.23421 10.4455 3.20479 10.6829 3.20479 10.9336V11.8589H0.909908ZM4.93821 11.8589C4.76465 11.8589 4.6204 11.8012 4.50544 11.6857C4.39047 11.5702 4.33299 11.4271 4.33299 11.2563V10.9589C4.33299 10.3222 4.67039 9.8087 5.34517 9.41853C6.01995 9.02837 6.90393 8.83328 7.99711 8.83328C9.1005 8.83328 9.98787 9.02837 10.6592 9.41853C11.3306 9.8087 11.6663 10.3222 11.6663 10.9589V11.2563C11.6663 11.4271 11.6085 11.5702 11.493 11.6857C11.3776 11.8012 11.2344 11.8589 11.0637 11.8589H4.93821ZM12.7945 11.8589V10.9336C12.7945 10.6829 12.7628 10.4455 12.6994 10.2212C12.6361 9.99694 12.5455 9.78728 12.4278 9.59225C12.5415 9.57003 12.6588 9.55443 12.7798 9.54547C12.9007 9.53649 13.0296 9.532 13.1663 9.532C13.9163 9.532 14.5205 9.67174 14.9788 9.95123C15.4371 10.2307 15.6663 10.5957 15.6663 11.0461V11.282C15.6663 11.4454 15.611 11.5825 15.5004 11.693C15.3898 11.8036 15.2528 11.8589 15.0894 11.8589H12.7945Z" fill="#535C76"/>
</g>
</svg>
