<svg width="14" height="14" viewBox="0 0 14 14" fill="none" xmlns="http://www.w3.org/2000/svg">
<path d="M5.24984 1.16797C3.7215 1.16797 2.479 2.41047 2.479 3.9388C2.479 5.43797 3.6515 6.6513 5.17984 6.7038C5.2265 6.69797 5.27317 6.69797 5.30817 6.7038C5.31984 6.7038 5.32567 6.7038 5.33734 6.7038C5.34317 6.7038 5.34317 6.7038 5.349 6.7038C6.84234 6.6513 8.01484 5.43797 8.02067 3.9388C8.02067 2.41047 6.77817 1.16797 5.24984 1.16797Z" fill="#4183D1"/>
<path d="M8.21356 8.25516C6.58605 7.17016 3.93189 7.17016 2.29272 8.25516C1.55189 8.75099 1.14355 9.42182 1.14355 10.1393C1.14355 10.8568 1.55189 11.5218 2.28689 12.0118C3.10355 12.5602 4.17689 12.8343 5.25022 12.8343C6.32355 12.8343 7.39689 12.5602 8.21356 12.0118C8.94855 11.516 9.35689 10.851 9.35689 10.1277C9.35106 9.41016 8.94855 8.74516 8.21356 8.25516Z" fill="#4183D1"/>
<path d="M11.661 4.28254C11.7543 5.41421 10.9493 6.40587 9.83512 6.54004C9.82929 6.54004 9.82929 6.54004 9.82346 6.54004H9.80596C9.77096 6.54004 9.73596 6.54004 9.70679 6.5517C9.14096 6.58087 8.62179 6.40004 8.23096 6.06754C8.83179 5.53087 9.17596 4.72587 9.10596 3.85087C9.06512 3.37837 8.90179 2.94671 8.65679 2.57921C8.87846 2.46837 9.13512 2.39837 9.39762 2.37504C10.541 2.27587 11.5618 3.12754 11.661 4.28254Z" fill="#4183D1"/>
<path d="M12.8273 9.67903C12.7806 10.2449 12.419 10.7349 11.8123 11.0674C11.229 11.3882 10.494 11.5399 9.76481 11.5224C10.1848 11.1432 10.4298 10.6707 10.4765 10.169C10.5348 9.4457 10.1906 8.75153 9.50231 8.19737C9.11148 7.8882 8.65648 7.6432 8.16064 7.46237C9.44981 7.08903 11.0715 7.33987 12.069 8.14487C12.6056 8.57653 12.8798 9.11903 12.8273 9.67903Z" fill="#4183D1"/>
</svg>
