<svg width="16" height="16" viewBox="0 0 16 16" fill="none" xmlns="http://www.w3.org/2000/svg">
<mask id="mask0_22537_51953" style="mask-type:alpha" maskUnits="userSpaceOnUse" x="0" y="0" width="16" height="16">
<rect width="16" height="16" fill="#D9D9D9"/>
</mask>
<g mask="url(#mask0_22537_51953)">
<path d="M5.99982 13.8346C5.30922 13.8346 4.71991 13.5906 4.23189 13.1026C3.74385 12.6145 3.49984 12.0252 3.49984 11.3346V5.76922C3.11095 5.62477 2.7915 5.3938 2.5415 5.07629C2.2915 4.75876 2.1665 4.40116 2.1665 4.00347C2.1665 3.4936 2.34467 3.06022 2.701 2.70332C3.05734 2.34642 3.49003 2.16797 3.99907 2.16797C4.50812 2.16797 4.94105 2.34642 5.29789 2.70332C5.65472 3.06022 5.83314 3.4936 5.83314 4.00347C5.83314 4.40116 5.70814 4.75876 5.45814 5.07629C5.20814 5.3938 4.88869 5.62477 4.4998 5.76922V11.3346C4.4998 11.7471 4.6468 12.1002 4.9408 12.394C5.2348 12.6878 5.58823 12.8346 6.00107 12.8346C6.41392 12.8346 6.76692 12.6878 7.06009 12.394C7.35325 12.1002 7.49984 11.7471 7.49984 11.3346V4.66795C7.49984 3.97735 7.74385 3.38804 8.23189 2.90002C8.71991 2.41199 9.30922 2.16797 9.99982 2.16797C10.6904 2.16797 11.2797 2.41199 11.7678 2.90002C12.2558 3.38804 12.4998 3.97735 12.4998 4.66795V10.2334C12.8887 10.3778 13.2081 10.6088 13.4581 10.9263C13.7081 11.2438 13.8331 11.6014 13.8331 11.9991C13.8331 12.509 13.655 12.9424 13.2986 13.2993C12.9423 13.6562 12.5096 13.8346 12.0006 13.8346C11.4915 13.8346 11.0586 13.6562 10.7018 13.2993C10.3449 12.9424 10.1665 12.509 10.1665 11.9991C10.1665 11.6014 10.2915 11.241 10.5415 10.918C10.7915 10.5949 11.1109 10.3667 11.4998 10.2334V4.66795C11.4998 4.25545 11.3528 3.90232 11.0588 3.60857C10.7648 3.31481 10.4114 3.16794 9.99857 3.16794C9.58573 3.16794 9.23272 3.31481 8.93955 3.60857C8.64639 3.90232 8.4998 4.25545 8.4998 4.66795V11.3346C8.4998 12.0252 8.25579 12.6145 7.76775 13.1026C7.27973 13.5906 6.69042 13.8346 5.99982 13.8346Z" fill="#535C76"/>
</g>
</svg>
