<svg width="20" height="20" viewBox="0 0 20 20" fill="none" xmlns="http://www.w3.org/2000/svg">
<mask id="mask0_21022_1267" style="mask-type:alpha" maskUnits="userSpaceOnUse" x="0" y="0" width="20" height="20">
<rect width="20" height="20" fill="#D9D9D9"/>
</mask>
<g mask="url(#mask0_21022_1267)">
<path d="M9.9987 14.7412L6.75672 16.6963C6.636 16.7668 6.51501 16.7965 6.39376 16.7853C6.2725 16.774 6.16272 16.7332 6.06443 16.6627C5.96615 16.5921 5.89031 16.5 5.83689 16.3862C5.78346 16.2724 5.77491 16.1466 5.81124 16.0088L6.6718 12.3278L3.80964 9.8502C3.70281 9.75725 3.6347 9.64962 3.60533 9.5273C3.57595 9.40497 3.58369 9.28612 3.62856 9.17074C3.67343 9.05535 3.73807 8.96107 3.82247 8.88789C3.90687 8.81471 4.02226 8.7669 4.16862 8.74447L7.94585 8.41434L9.41218 4.93839C9.4656 4.80912 9.54652 4.7135 9.65495 4.65153C9.7634 4.58957 9.87798 4.55859 9.9987 4.55859C10.1194 4.55859 10.234 4.58957 10.3425 4.65153C10.4509 4.7135 10.5318 4.80912 10.5852 4.93839L12.0516 8.41434L15.8288 8.74447C15.9751 8.7669 16.0905 8.81471 16.1749 8.88789C16.2593 8.96107 16.324 9.05535 16.3688 9.17074C16.4137 9.28612 16.4214 9.40497 16.3921 9.5273C16.3627 9.64962 16.2946 9.75725 16.1878 9.8502L13.3256 12.3278L14.1862 16.0088C14.2225 16.1466 14.2139 16.2724 14.1605 16.3862C14.1071 16.5 14.0312 16.5921 13.933 16.6627C13.8347 16.7332 13.7249 16.774 13.6036 16.7853C13.4824 16.7965 13.3614 16.7668 13.2407 16.6963L9.9987 14.7412Z" fill="#FF9E22"/>
</g>
</svg>
