<svg width="20" height="20" viewBox="0 0 20 20" fill="none" xmlns="http://www.w3.org/2000/svg">
<path fill-rule="evenodd" clip-rule="evenodd" d="M6.93668 6.15729C7.3348 6.06983 7.80337 6.04297 8.33398 6.04297H11.6673C12.1979 6.04297 12.6665 6.06983 13.0646 6.15729C13.4698 6.24631 13.8409 6.4064 14.1349 6.7004C14.4289 6.9944 14.589 7.36546 14.678 7.77066C14.7655 8.16879 14.7923 8.63736 14.7923 9.16797V18.3346C14.7923 18.6798 14.5125 18.9596 14.1673 18.9596H5.83398C5.48881 18.9596 5.20898 18.6798 5.20898 18.3346V9.16797C5.20898 8.63736 5.23585 8.16879 5.32331 7.77066C5.41232 7.36546 5.57241 6.9944 5.86642 6.7004C6.16042 6.4064 6.53147 6.24631 6.93668 6.15729ZM6.54419 8.03887C6.48608 8.3034 6.45898 8.66441 6.45898 9.16797V17.7096H13.5423V9.16797C13.5423 8.66441 13.5152 8.3034 13.4571 8.03887C13.4006 7.78142 13.3235 7.65674 13.251 7.58429C13.1785 7.51183 13.0539 7.43474 12.7964 7.37818C12.5319 7.32007 12.1709 7.29297 11.6673 7.29297H8.33398C7.83043 7.29297 7.46941 7.32007 7.20488 7.37818C6.94743 7.43474 6.82276 7.51183 6.7503 7.58429C6.67785 7.65674 6.60075 7.78142 6.54419 8.03887Z" fill="#CC0000"/>
<path fill-rule="evenodd" clip-rule="evenodd" d="M8.54102 10C8.54102 9.65482 8.82084 9.375 9.16602 9.375H10.8327C11.1779 9.375 11.4577 9.65482 11.4577 10C11.4577 10.3452 11.1779 10.625 10.8327 10.625H9.16602C8.82084 10.625 8.54102 10.3452 8.54102 10ZM8.54102 12.5C8.54102 12.1548 8.82084 11.875 9.16602 11.875H10.8327C11.1779 11.875 11.4577 12.1548 11.4577 12.5C11.4577 12.8452 11.1779 13.125 10.8327 13.125H9.16602C8.82084 13.125 8.54102 12.8452 8.54102 12.5ZM8.54102 15C8.54102 14.6548 8.82084 14.375 9.16602 14.375H10.8327C11.1779 14.375 11.4577 14.6548 11.4577 15C11.4577 15.3452 11.1779 15.625 10.8327 15.625H9.16602C8.82084 15.625 8.54102 15.3452 8.54102 15Z" fill="#CC0000"/>
<path fill-rule="evenodd" clip-rule="evenodd" d="M12.3242 1.37401C12.3242 1.37401 12.3242 1.37401 12.3242 1.37401L15.9423 3.22134L15.9699 3.23543C16.3946 3.45229 16.7555 3.63653 17.0383 3.82028C17.3398 4.01621 17.5964 4.23824 17.7864 4.55228C17.976 4.86554 18.0549 5.19684 18.0914 5.55665C18.1257 5.89563 18.1257 6.30627 18.1257 6.79223V18.3345C18.1257 18.6797 17.8458 18.9595 17.5007 18.9595C17.1555 18.9595 16.8757 18.6797 16.8757 18.3345V6.82254C16.8757 6.29819 16.8749 5.95117 16.8477 5.68257C16.8219 5.42776 16.7764 5.29753 16.717 5.1995C16.6582 5.10226 16.5662 5.00422 16.3572 4.86844C16.1356 4.72446 15.8336 4.56937 15.3739 4.33462C15.3739 4.33462 15.3739 4.33462 15.3739 4.33462L11.7558 2.48728C11.6394 2.42786 11.5458 2.38491 11.4711 2.35459C11.4636 2.44028 11.459 2.55073 11.459 2.69179V6.42076C11.459 6.76594 11.1792 7.04576 10.834 7.04576C10.4888 7.04576 10.209 6.76594 10.209 6.42076V2.69179C10.209 2.40899 10.2236 2.13746 10.2778 1.90525C10.3307 1.67897 10.446 1.38288 10.7348 1.19601C11.0289 1.0057 11.3497 1.02665 11.583 1.08C11.8183 1.13383 12.0698 1.24412 12.3242 1.37401ZM11.2724 2.29269C11.2706 2.29263 11.2696 2.29253 11.2696 2.29249L11.2724 2.29269Z" fill="#CC0000"/>
<path fill-rule="evenodd" clip-rule="evenodd" d="M3.13194 10.6319C3.1278 10.68 3.125 10.7452 3.125 10.8333V18.3333C3.125 18.6785 2.84518 18.9583 2.5 18.9583C2.15482 18.9583 1.875 18.6785 1.875 18.3333V10.8333C1.875 10.6475 1.88388 10.4554 1.92281 10.2782C1.9633 10.0939 2.04433 9.88805 2.21618 9.7162C2.38802 9.54435 2.59383 9.46331 2.77815 9.42282C2.9554 9.38388 3.14744 9.375 3.33333 9.375H5.83333C6.17851 9.375 6.45833 9.65482 6.45833 10C6.45833 10.3452 6.17851 10.625 5.83333 10.625H3.33333C3.24523 10.625 3.18001 10.6278 3.13194 10.6319Z" fill="#CC0000"/>
<path fill-rule="evenodd" clip-rule="evenodd" d="M1.04102 18.332C1.04102 17.9869 1.32084 17.707 1.66602 17.707H18.3327C18.6779 17.707 18.9577 17.9869 18.9577 18.332C18.9577 18.6772 18.6779 18.957 18.3327 18.957H1.66602C1.32084 18.957 1.04102 18.6772 1.04102 18.332Z" fill="#CC0000"/>
</svg>
