<svg width="24" height="24" viewBox="0 0 24 24" fill="none" xmlns="http://www.w3.org/2000/svg">
<path d="M14.8541 4H9.14592C6.65029 4 4.52872 5.96401 3.75294 8.7004C3.49752 9.6013 3.36982 10.0517 3.69065 10.5259C4.01148 11 4.53377 11 5.57833 11H18.4217C19.4662 11 19.9885 11 20.3094 10.5259C20.6302 10.0517 20.5025 9.6013 20.2471 8.7004C19.4713 5.96401 17.3497 4 14.8541 4Z" stroke="#CC0000" stroke-width="1.5" stroke-linecap="round" stroke-linejoin="round"/>
<path d="M6 15H5.57833C4.53377 15 4.01149 15 3.69065 15.3387C3.36982 15.6773 3.49753 15.9991 3.75294 16.6426C4.52873 18.5971 6.65029 20 9.14593 20H14.8541C17.3497 20 19.4713 18.5971 20.2471 16.6426C20.5025 15.9991 20.6302 15.6773 20.3093 15.3387C19.9885 15 19.4662 15 18.4217 15H14" stroke="#CC0000" stroke-width="1.5" stroke-linecap="round" stroke-linejoin="round"/>
<path d="M19 15H20C21.1046 15 22 14.1046 22 13C22 11.8954 21.1046 11 20 11H12M12 11L10.5185 12.7284C9.81279 13.5517 9.45993 13.9634 9 13.9634C8.54007 13.9634 8.18721 13.5517 7.48149 12.7284L6 11M12 11H6M5 15H4C2.89543 15 2 14.1046 2 13C2 11.8954 2.89543 11 4 11H6" stroke="#CC0000" stroke-width="1.5" stroke-linecap="round" stroke-linejoin="round"/>
<path d="M9.008 8H8.99902" stroke="#CC0000" stroke-width="2" stroke-linecap="round" stroke-linejoin="round"/>
<path d="M15 7L14 8" stroke="#CC0000" stroke-width="1.5" stroke-linecap="round" stroke-linejoin="round"/>
</svg>
