<svg width="20" height="20" viewBox="0 0 20 20" fill="none" xmlns="http://www.w3.org/2000/svg">
<g clip-path="url(#clip0_22404_5495)">
<path d="M3.90625 4.21875C2.78594 4.21875 1.875 3.30781 1.875 2.1875C1.875 1.06719 2.78594 0.15625 3.90625 0.15625C5.02656 0.15625 5.9375 1.06719 5.9375 2.1875C5.9375 3.30781 5.02656 4.21875 3.90625 4.21875ZM3.90625 1.09375C3.30313 1.09375 2.8125 1.58438 2.8125 2.1875C2.8125 2.79063 3.30313 3.28125 3.90625 3.28125C4.50938 3.28125 5 2.79063 5 2.1875C5 1.58438 4.50938 1.09375 3.90625 1.09375ZM16.5625 12.0312C15.7016 12.0312 15 11.3297 15 10.4688C15 9.60781 15.7016 8.90625 16.5625 8.90625C17.4234 8.90625 18.125 9.60781 18.125 10.4688C18.125 11.3297 17.4234 12.0312 16.5625 12.0312ZM16.5625 9.84375C16.2172 9.84375 15.9375 10.1234 15.9375 10.4688C15.9375 10.8141 16.2172 11.0938 16.5625 11.0938C16.9078 11.0938 17.1875 10.8141 17.1875 10.4688C17.1875 10.1234 16.9078 9.84375 16.5625 9.84375ZM10 4.21875C8.87969 4.21875 7.96875 3.30781 7.96875 2.1875C7.96875 1.06719 8.87969 0.15625 10 0.15625C11.1203 0.15625 12.0312 1.06719 12.0312 2.1875C12.0312 3.30781 11.1203 4.21875 10 4.21875ZM10 1.09375C9.39687 1.09375 8.90625 1.58438 8.90625 2.1875C8.90625 2.79063 9.39687 3.28125 10 3.28125C10.6031 3.28125 11.0938 2.79063 11.0938 2.1875C11.0938 1.58438 10.6031 1.09375 10 1.09375Z" fill="#CC0000"/>
<path d="M19.6788 16.7906L19.4038 15.2797C19.1569 13.925 18.0725 12.9016 16.7053 12.7359C15.0319 12.5328 13.7413 11.2203 13.5678 9.54531L13.3975 7.91563C13.2147 6.16406 11.7507 4.84375 9.98971 4.84375C9.26159 4.84375 8.56628 5.06875 7.97878 5.49531C7.7694 5.64687 7.72253 5.94063 7.87409 6.15C8.02565 6.35938 8.3194 6.40625 8.52878 6.25469C8.95534 5.94531 9.46003 5.78125 9.98971 5.78125C11.2694 5.78125 12.3335 6.74062 12.4663 8.0125L12.6366 9.64219C12.7772 10.9891 13.4897 12.1469 14.5319 12.8781V15.3125C14.5319 15.8828 14.7694 16.4 15.1507 16.7688L15.3147 19.4047C15.3303 19.6531 15.5366 19.8438 15.7819 19.8438C15.7913 19.8438 15.8022 19.8438 15.8116 19.8422C16.0694 19.8266 16.2663 19.6031 16.2507 19.3453L16.1225 17.2937C16.2647 17.325 16.4116 17.3438 16.5647 17.3438H17.0038L16.8788 19.3453C16.8632 19.6031 17.0585 19.8266 17.3178 19.8422C17.3272 19.8422 17.3382 19.8438 17.3475 19.8438C17.5928 19.8438 17.7991 19.6531 17.8147 19.4047L17.971 16.9047C17.9788 16.775 17.9335 16.6484 17.8444 16.5547C17.7553 16.4609 17.6288 16.4062 17.4991 16.4062H16.5616C15.9585 16.4062 15.4678 15.9156 15.4678 15.3125V13.3844C15.8225 13.5234 16.1991 13.6203 16.5928 13.6672C17.5507 13.7828 18.31 14.4984 18.4819 15.4469L18.7569 16.9578C18.7975 17.1844 18.996 17.3422 19.2178 17.3422C19.246 17.3422 19.2741 17.3391 19.3022 17.3344C19.5569 17.2906 19.7257 17.0453 19.6788 16.7906Z" fill="#CC0000"/>
<path d="M12.0312 11.7188C11.7719 11.7188 11.5625 11.9281 11.5625 12.1875V14.8438H8.4375C8.4375 14.5844 8.22812 14.375 7.96875 14.375C7.70937 14.375 7.5 14.5844 7.5 14.8438C7.5 15.3609 7.92031 15.7812 8.4375 15.7812H8.47188L8.75156 19.4109C8.77031 19.6562 8.975 19.8438 9.21875 19.8438C9.23125 19.8438 9.24375 19.8438 9.25469 19.8422C9.5125 19.8219 9.70625 19.5969 9.68594 19.3391L9.4125 15.7812H10.5875L10.3141 19.3391C10.2937 19.5969 10.4875 19.8219 10.7453 19.8422C10.7578 19.8438 10.7703 19.8438 10.7812 19.8438C11.0234 19.8438 11.2297 19.6562 11.2484 19.4109L11.5281 15.7812H11.5625C12.0797 15.7812 12.5 15.3609 12.5 14.8438V12.1875C12.5 11.9281 12.2906 11.7188 12.0312 11.7188ZM7.46094 7.91562C7.27812 6.16406 5.81406 4.84375 4.05312 4.84375C2.1625 4.84375 0.625 6.38125 0.625 8.27187V12.8125C0.625 13.4234 1.01719 13.9453 1.5625 14.1391V18.4375C1.5625 19.2125 2.19375 19.8438 2.96875 19.8438C3.32969 19.8438 3.65781 19.7063 3.90625 19.4828C4.15469 19.7063 4.48281 19.8438 4.84375 19.8438C5.61875 19.8438 6.25 19.2125 6.25 18.4375V14.375C6.25 14.1156 6.04063 13.9062 5.78125 13.9062C5.52187 13.9062 5.3125 14.1156 5.3125 14.375V18.4375C5.3125 18.6953 5.10156 18.9062 4.84375 18.9062C4.58594 18.9062 4.375 18.6953 4.375 18.4375V12.8125C4.375 12.5531 4.16562 12.3438 3.90625 12.3438C3.64687 12.3438 3.4375 12.5531 3.4375 12.8125V18.4375C3.4375 18.6953 3.22656 18.9062 2.96875 18.9062C2.71094 18.9062 2.5 18.6953 2.5 18.4375V13.75C2.5 13.4906 2.29062 13.2812 2.03125 13.2812C1.77344 13.2812 1.5625 13.0703 1.5625 12.8125V8.27187C1.5625 6.89844 2.67969 5.78125 4.05312 5.78125C5.325 5.78125 6.38437 6.72969 6.52656 7.99062V12.8125C6.52656 13.0719 6.73594 13.2812 6.99531 13.2812C7.25469 13.2812 7.46406 13.0719 7.46406 12.8125V7.96406C7.46406 7.94844 7.4625 7.93281 7.46094 7.91562Z" fill="#CC0000"/>
</g>
<defs>
<clipPath id="clip0_22404_5495">
<rect width="20" height="20" fill="white"/>
</clipPath>
</defs>
</svg>
