<svg width="100" height="100" viewBox="0 0 20 20" xmlns="http://www.w3.org/2000/svg">
  <mask id="cutout-mask">
    <rect width="100%" height="100%" fill="white" />
    <path d="M10.0003 18.3337C14.6027 18.3337 18.3337 14.6027 18.3337 10.0003C18.3337 5.39795 14.6027 1.66699 10.0003 1.66699C5.39795 1.66699 1.66699 5.39795 1.66699 10.0003C1.66699 14.6027 5.39795 18.3337 10.0003 18.3337Z"
          fill="none" stroke="black" stroke-width="1.25" stroke-linecap="round" stroke-linejoin="round"/>
    <path d="M11.667 4.78192C11.667 4.78192 10.7377 5.19873 10.0851 4.88075C9.28898 4.49298 8.49957 2.87215 10.0765 1.66699"
          fill="none" stroke="black" stroke-width="1.25" stroke-linecap="round" stroke-linejoin="round"/>
    <path d="M6.67447 7.5H6.66699M13.3337 7.5H13.3262"
          fill="none" stroke="black" stroke-width="1.66667" stroke-linecap="round" stroke-linejoin="round"/>
    <path d="M6.66699 12.5C7.42709 13.512 8.63724 14.1667 10.0003 14.1667C11.3634 14.1667 12.5736 13.512 13.3337 12.5"
          fill="none" stroke="black" stroke-width="1.25" stroke-linecap="round" stroke-linejoin="round"/>
  </mask>

  <circle cx="10" cy="10" r="8.333" fill="#CC0000" mask="url(#cutout-mask)" />
</svg>