<svg width="20" height="20" viewBox="0 0 20 20" fill="none" xmlns="http://www.w3.org/2000/svg">
<path fill-rule="evenodd" clip-rule="evenodd" d="M5.57684 7.36359C5.04205 7.43081 4.74157 7.55438 4.51246 7.74864C4.28252 7.94361 4.1081 8.22374 3.94781 8.74816C3.78265 9.28854 3.65448 10.0091 3.47188 11.0447L3.16751 12.7709C2.91533 14.2011 2.73918 15.2086 2.71242 15.9761C2.68624 16.7271 2.80963 17.1311 3.05345 17.426C3.29597 17.7193 3.66302 17.9115 4.39345 18.0168C5.14214 18.1248 6.15045 18.1263 7.58572 18.1263H12.4156C13.8508 18.1263 14.8591 18.1248 15.6078 18.0168C16.3383 17.9115 16.7053 17.7193 16.9478 17.426C17.1917 17.1311 17.3151 16.7271 17.2889 15.9761C17.2621 15.2086 17.086 14.2012 16.8338 12.7709C16.8338 12.7709 16.8338 12.7709 16.8338 12.7709L16.5294 11.0448C16.3468 10.0091 16.2186 9.28854 16.0535 8.74815C15.8932 8.22374 15.7188 7.94362 15.4889 7.74865C15.2597 7.55438 14.9592 7.43081 14.4244 7.36359C13.8718 7.29412 13.1505 7.29297 12.1112 7.29297H7.89009C6.85078 7.29297 6.1295 7.29412 5.57684 7.36359ZM7.84862 6.04297H12.1527C13.1406 6.04295 13.9407 6.04294 14.5803 6.12335C15.2468 6.20712 15.814 6.38553 16.2972 6.79522C16.7796 7.20422 17.0512 7.73613 17.2489 8.3828C17.439 9.00503 17.5794 9.8014 17.7533 10.7873L17.7604 10.8277L18.0648 12.5538L18.0735 12.6032C18.315 13.973 18.5079 15.067 18.5381 15.9326C18.5692 16.8249 18.4339 17.5903 17.9113 18.2224C17.3874 18.8562 16.6632 19.1276 15.7862 19.254C14.9379 19.3763 13.8391 19.3763 12.4664 19.3763H7.53491C6.16221 19.3763 5.06339 19.3763 4.21507 19.254C3.33804 19.1276 2.61395 18.8562 2.09004 18.2224C1.56744 17.5903 1.43207 16.8249 1.46318 15.9326C1.49335 15.067 1.68628 13.9729 1.92785 12.6029L1.9365 12.5539L2.24087 10.8277L2.24792 10.7877C2.42178 9.80158 2.5622 9.00509 2.7524 8.38279C2.95006 7.73611 3.22171 7.20422 3.70405 6.79524C4.18724 6.38553 4.7545 6.20712 5.42095 6.12334C6.06063 6.04294 6.86068 6.04295 7.84862 6.04297Z" fill="#CC0000"/>
<path fill-rule="evenodd" clip-rule="evenodd" d="M9.99979 2.29297C8.44074 2.29297 7.14196 3.48802 7.01249 5.04169L6.87264 6.71987L5.62695 6.61607L5.7668 4.93788C5.95026 2.73635 7.79063 1.04297 9.99979 1.04297C12.2089 1.04297 14.0493 2.73635 14.2328 4.93787L14.2328 4.93789L14.3726 6.61607L13.127 6.71987L12.9871 5.0417C12.9871 5.04169 12.9871 5.04169 12.9871 5.04168C12.8576 3.48801 11.5588 2.29297 9.99979 2.29297Z" fill="#CC0000"/>
<path fill-rule="evenodd" clip-rule="evenodd" d="M7.44278 8.54564C7.7865 8.51401 8.09079 8.76702 8.12241 9.11074C8.19666 9.91765 8.96654 10.6263 10 10.6263C11.0335 10.6263 11.8034 9.91764 11.8777 9.11075C11.9093 8.76703 12.2136 8.51402 12.5573 8.54564C12.901 8.57726 13.154 8.88154 13.1224 9.22527C12.98 10.7735 11.576 11.8763 10 11.8763C8.42404 11.8763 7.02013 10.7735 6.87767 9.22527C6.84604 8.88155 7.09905 8.57726 7.44278 8.54564Z" fill="#CC0000"/>
</svg>
