<?xml version="1.0" standalone="no"?>
<!DOCTYPE svg PUBLIC "-//W3C//DTD SVG 20010904//EN"
 "http://www.w3.org/TR/2001/REC-SVG-20010904/DTD/svg10.dtd">
<svg version="1.0" xmlns="http://www.w3.org/2000/svg"
 width="96.000000pt" height="96.000000pt" viewBox="0 0 96.000000 96.000000"
 preserveAspectRatio="xMidYMid meet">

<g transform="translate(0.000000,96.000000) scale(0.100000,-0.100000)"
fill="#CC0000" stroke="none">
<path d="M380 866 c-163 -47 -281 -186 -297 -348 -15 -166 78 -327 231 -399
197 -92 433 -5 527 195 118 252 -60 548 -339 562 -46 2 -95 -2 -122 -10z m260
-206 c11 -11 20 -29 20 -41 0 -45 -52 -225 -72 -246 -13 -14 -55 -30 -129 -48
-180 -45 -198 -27 -155 150 19 78 34 119 49 133 22 21 187 69 240 71 15 1 36
-8 47 -19z"/>
<path d="M420 540 c-43 -43 -11 -120 50 -120 17 0 39 9 50 20 11 11 20 33 20
50 0 17 -9 39 -20 50 -11 11 -33 20 -50 20 -17 0 -39 -9 -50 -20z"/>
</g>
</svg>
