<svg width="24" height="24" viewBox="0 0 24 24" fill="none" xmlns="http://www.w3.org/2000/svg">
<path d="M9.90599 11.7493C9.90599 12.7659 10.7326 13.5926 11.7493 13.5926C12.7659 13.5926 13.5926 12.7659 13.5926 11.7493C13.5926 10.7326 12.7659 9.90599 11.7493 9.90599C10.7326 9.90599 9.90599 10.7326 9.90599 11.7493Z" fill="#CC0000"/>
<path fill-rule="evenodd" clip-rule="evenodd" d="M12 22C17.5228 22 22 17.5228 22 12C22 6.47715 17.5228 2 12 2C6.47715 2 2 6.47715 2 12C2 17.5228 6.47715 22 12 22ZM14.4524 7.0508C15.0178 6.90828 15.6021 7.0698 16.0154 7.48312C16.4287 7.89168 16.5903 8.47602 16.4477 9.04136L15.2838 13.7018C15.089 14.4857 14.4809 15.089 13.7018 15.2838L9.04136 16.4477C8.90833 16.4857 8.77056 16.5 8.63754 16.5C8.20998 16.5 7.79666 16.329 7.48312 16.0202C7.0698 15.6069 6.90828 15.0225 7.0508 14.4572L8.21473 9.79672C8.40951 9.0176 9.01285 8.40951 9.79672 8.21473L14.4524 7.0508Z" fill="#CC0000"/>
</svg>
