<svg width="10" height="10" viewBox="0 0 10 10" fill="none" xmlns="http://www.w3.org/2000/svg">
<g clip-path="url(#clip0_22537_52046)">
<path d="M4.746 4.32971L3.12516 5.94929L1.50433 4.32971C1.18394 4.00917 0.965789 3.60083 0.877452 3.15632C0.789115 2.71181 0.83456 2.25109 1.00804 1.8324C1.18153 1.41372 1.47525 1.05587 1.85209 0.80411C2.22893 0.552346 2.67196 0.417969 3.12516 0.417969C3.57837 0.417969 4.02139 0.552346 4.39823 0.80411C4.77507 1.05587 5.0688 1.41372 5.24228 1.8324C5.41577 2.25109 5.46121 2.71181 5.37288 3.15632C5.28454 3.60083 5.06639 4.00917 4.746 4.32971ZM3.12516 3.54221C3.34618 3.54221 3.55814 3.45441 3.71442 3.29813C3.8707 3.14185 3.9585 2.92989 3.9585 2.70887C3.9585 2.48786 3.8707 2.2759 3.71442 2.11962C3.55814 1.96334 3.34618 1.87554 3.12516 1.87554C2.90415 1.87554 2.69219 1.96334 2.53591 2.11962C2.37963 2.2759 2.29183 2.48786 2.29183 2.70887C2.29183 2.92989 2.37963 3.14185 2.53591 3.29813C2.69219 3.45441 2.90415 3.54221 3.12516 3.54221ZM8.496 8.07971L6.87516 9.69971L5.25433 8.07929C4.93394 7.75875 4.71579 7.35042 4.62745 6.9059C4.53912 6.46139 4.58456 6.00067 4.75804 5.58199C4.93153 5.1633 5.22526 4.80546 5.60209 4.55369C5.97893 4.30193 6.42196 4.16755 6.87516 4.16755C7.32837 4.16755 7.77139 4.30193 8.14823 4.55369C8.52507 4.80546 8.8188 5.1633 8.99228 5.58199C9.16577 6.00067 9.21121 6.46139 9.12288 6.9059C9.03454 7.35042 8.81638 7.75875 8.496 8.07929V8.07971ZM6.87516 7.29221C7.09618 7.29221 7.30814 7.20441 7.46442 7.04813C7.6207 6.89185 7.7085 6.67989 7.7085 6.45887C7.7085 6.23786 7.6207 6.0259 7.46442 5.86962C7.30814 5.71334 7.09618 5.62554 6.87516 5.62554C6.65415 5.62554 6.44219 5.71334 6.28591 5.86962C6.12963 6.0259 6.04183 6.23786 6.04183 6.45887C6.04183 6.67989 6.12963 6.89185 6.28591 7.04813C6.44219 7.20441 6.65415 7.29221 6.87516 7.29221Z" fill="#4183D1"/>
</g>
<defs>
<clipPath id="clip0_22537_52046">
<rect width="10" height="10" fill="white"/>
</clipPath>
</defs>
</svg>
