<svg width="16" height="16" viewBox="0 0 16 16" fill="none" xmlns="http://www.w3.org/2000/svg">
<mask id="mask0_20351_125991" style="mask-type:alpha" maskUnits="userSpaceOnUse" x="0" y="0" width="16" height="16">
<rect width="16" height="16" fill="#D9D9D9"/>
</mask>
<g mask="url(#mask0_20351_125991)">
<path d="M7.99981 13.9615C7.8699 13.9615 7.73998 13.9391 7.61007 13.8942C7.48016 13.8493 7.36264 13.7799 7.25751 13.6859C6.65923 13.1346 6.09941 12.5669 5.57804 11.9827C5.05667 11.3985 4.60347 10.8145 4.21842 10.2308C3.83338 9.64702 3.52868 9.06839 3.30432 8.49489C3.07996 7.92137 2.96777 7.36752 2.96777 6.83334C2.96777 5.29489 3.46542 4.04939 4.46072 3.09682C5.45601 2.14425 6.63571 1.66797 7.99981 1.66797C9.36391 1.66797 10.5436 2.14425 11.5389 3.09682C12.5342 4.04939 13.0318 5.29489 13.0318 6.83334C13.0318 7.36752 12.9197 7.92031 12.6953 8.49169C12.4709 9.06305 12.1673 9.64169 11.7844 10.2276C11.4015 10.8135 10.9494 11.3974 10.428 11.9795C9.90662 12.5615 9.3468 13.1282 8.74851 13.6795C8.64492 13.7735 8.5272 13.844 8.39536 13.891C8.2635 13.938 8.13165 13.9615 7.99981 13.9615ZM8.00094 7.91154C8.33266 7.91154 8.61626 7.79342 8.85172 7.5572C9.08719 7.32098 9.20492 7.03701 9.20492 6.70529C9.20492 6.37356 9.08681 6.08997 8.85059 5.8545C8.61437 5.61904 8.3304 5.5013 7.99867 5.5013C7.66695 5.5013 7.38336 5.61941 7.14789 5.85564C6.91242 6.09186 6.79469 6.37583 6.79469 6.70755C6.79469 7.03927 6.9128 7.32287 7.14902 7.55834C7.38525 7.7938 7.66922 7.91154 8.00094 7.91154Z" fill="#8791A9"/>
</g>
</svg>
