<svg width="10" height="10" viewBox="0 0 10 10" fill="none" xmlns="http://www.w3.org/2000/svg">
<path d="M4.996 0.832031C2.696 0.832031 0.833496 2.6987 0.833496 4.9987C0.833496 7.2987 2.696 9.16537 4.996 9.16537C7.30016 9.16537 9.16683 7.2987 9.16683 4.9987C9.16683 2.6987 7.30016 0.832031 4.996 0.832031ZM6.66683 6.66536C6.62828 6.70399 6.5825 6.73464 6.53209 6.75555C6.48168 6.77645 6.42765 6.78722 6.37308 6.78722C6.31851 6.78722 6.26448 6.77645 6.21407 6.75555C6.16366 6.73464 6.11788 6.70399 6.07933 6.66536L4.7085 5.29453C4.66913 5.25594 4.63781 5.20992 4.61635 5.15914C4.59489 5.10836 4.58373 5.05383 4.5835 4.9987V3.33203C4.5835 3.10286 4.771 2.91536 5.00016 2.91536C5.22933 2.91536 5.41683 3.10286 5.41683 3.33203V4.82786L6.66683 6.07787C6.82933 6.24037 6.82933 6.50286 6.66683 6.66536Z" fill="#4183D1"/>
</svg>
